<?xml version="1.0" encoding="utf-8"?>
<!-- Generator: Adobe Illustrator 18.1.1, SVG Export Plug-In . SVG Version: 6.00 Build 0)  -->
<!DOCTYPE svg PUBLIC "-//W3C//DTD SVG 1.1//EN" "http://www.w3.org/Graphics/SVG/1.1/DTD/svg11.dtd">
<svg version="1.1" id="Layer_1" xmlns="http://www.w3.org/2000/svg" xmlns:xlink="http://www.w3.org/1999/xlink" x="0px" y="0px"
	 viewBox="0 0 203.9 83.6" enable-background="new 0 0 203.9 83.6" xml:space="preserve">
<g>
	<path fill="#6A813B" d="M20,1.1l10.2,1.5v0.1h1.2l-0.3,5.5l-1-0.3c-0.2,22-0.4,51.2-0.4,51.4c0,0.3,2.6-0.5,2.6-0.2
		c0,0.2,0.3,8.6,0.3,8.6c0-0.1-21.7-0.3-23.2-0.3c-1.5,0-8.6-1.2-9.1-6.8C0.1,58.7,0,54.8,0,50.5c0-8.7,0.3-19.4,0.3-20
		c0-6.4,5.3-6.6,5.8-6.6c5.5,0,12.1,0.3,15.1,0.3L20,1.1z M11.9,32c-2,0-3.4,0.4-3.4,2.1v1.3C8.5,40.8,8,55.2,8,55.5
		c0,0.4,0.3,3,2.7,3.2c0.4,0,0.9,0.1,1.4,0.1c2.3,0,5.3-0.3,6.7-0.4l-0.3-25.8C16.5,32.4,13.9,32,11.9,32z"/>
	<path fill="#6A813B" d="M49.6,67.8c-3.2,0-8.9-0.7-8.9-0.7V12.7l10.4-0.2c0,0,0.4,53.9,0.4,54.9C51.6,67.7,50.8,67.8,49.6,67.8z
		 M46,10.1c-1.9,0-5-1.5-5-4.1c0-2.9,2.2-5,4.5-5c2.3,0,4.8,1.6,4.8,4.5c0,3.1-2,4-3.8,4.4C46.4,10,46.2,10.1,46,10.1z"/>
	<path fill="#6A813B" d="M51.4,74.6c23.8-0.8,26.5-2,26.5-4.1v-0.3v-4.9c0-1.8,0-3.3-0.1-3.3c-0.2,0-4.5,1.3-8.8,1.3
		c-4.4,0-9.4-5.2-9.4-8.7c0-3.4,1.6-43.5,1.6-44.3c0-0.9,2.1-10.3,9-10.3c6.8,0,8.1,3.3,9.7,7.2l1.3-6l8-0.2
		c-0.1,28.4-0.4,73.5-0.6,74.8c-0.2,1.4-2.3,5.5-9.1,6.1c-6.7,0.5-14.6,1.2-27.8,1.7L51.4,74.6z M75.5,11.4c-2.5,0-4,2.9-4.1,4.6
		c-0.1,1.7-0.9,27.5-0.9,30.5c0,1.1,1.1,5.6,4.1,5.6c3,0,4.6-3,4.7-5.5V46c0-4.9-0.7-30.4-0.7-30.4S77.9,11.4,75.5,11.4z"/>
	<path fill="#6A813B" d="M89.5,74.6c23.8-0.8,26.5-2,26.5-4.1v-0.3v-4.9c0-1.8,0-3.3-0.1-3.3c-0.2,0-4.5,1.3-8.8,1.3
		c-4.4,0-9.4-5.2-9.4-8.7c0-3.4,1.6-43.5,1.6-44.3c0-0.9,2.1-10.3,9-10.3c6.8,0,8.1,3.3,9.7,7.2l1.3-6l8-0.2
		c-0.1,28.4-0.4,73.5-0.6,74.8c-0.2,1.4-2.3,5.5-9,6.1c-6.7,0.5-14.6,1.2-27.8,1.7L89.5,74.6z M113.6,11.4c-2.5,0-4,2.9-4.1,4.6
		c-0.1,1.7-0.9,27.5-0.9,30.5c0,1.1,1.1,5.6,4.1,5.6c3,0,4.6-3,4.7-5.5V46c0-4.9-0.7-30.4-0.7-30.4S116.1,11.4,113.6,11.4z"/>
	<path fill="#6A813B" d="M142.2,67.8c-3.2,0-8.9-0.7-8.9-0.7V12.7l10.4-0.2c0,0,0.4,53.9,0.4,54.9C144.1,67.7,143.4,67.8,142.2,67.8
		z M138.5,10.1c-1.9,0-5-1.5-5-4.1c0-2.9,2.2-5,4.5-5c2.3,0,4.8,1.6,4.8,4.5c0,3.1-2,4-3.8,4.4C138.9,10,138.8,10.1,138.5,10.1z"/>
	<path fill="#6A813B" d="M173.8,17.7c-1.8,0-5.4-0.3-7.2-0.3c-0.7,0-1.1,0.1-1.1,0.2v1.9c0,7.8,0.2,37.6,0.2,45.2v1.8
		c-0.2,0.2-7.2,0.3-9.8,0.3h-0.9v-1.2c0-4.7,0.1-21.3,0.1-33.3c0-7.4,0-13.1-0.2-13.2c-0.4-0.1-3.2-0.1-3.2-0.4c0-0.4,0-8.3,0.2-8.3
		c0.2,0,2.2,0.1,3.5,0.1c0.7,0,1.2,0,1.2-0.1c0-0.3,0-8.9,0.2-8.9h3.8c1.9,0,3.8,0,3.8,0.1c0,0.3,0.3,7.3,0.3,8.6v0.3h0.7
		c2.1,0,8.6-0.1,10.8-0.1h0.7c0,0.1-1.7,6.8-2,7.3C174.9,17.7,174.5,17.7,173.8,17.7z"/>
	<path fill="#6A813B" d="M187.9,61.4H187c-2.7,0-5.4,0.4-7,0.4c-0.7,0-1.1-0.1-1.2-0.4v-1.1c0-4.1,0.4-18.7,0.4-23.3
		c0-5.3,1.1-5,2-6.1c0.8-1,5.4-1.4,9.1-1.9c3.4-0.4,3.6-2.7,3.6-3.6v-0.3v-9.6v-3.5c0-0.2-0.4-0.3-1-0.3c-1.3,0-3.3,0.3-3.3,0.4
		c-0.3,0.1-0.9,7.4-0.9,7.4h-8.4v-2.9c0.2-1.9,1.4-8.5,2.6-11c1.4-2.5,4.7-3.8,6.2-4.2c1.3-0.3,2.3-0.5,3.4-0.5
		c1.1,0,2.5,0.2,4.3,0.7c3.7,0.8,6.1,7.2,6.1,8.7c0,1.5,0.8,18.8,0.8,22.4c0,3.6-3.8,4.3-5.3,4.5h-1c-2.2,0-6.7,0.4-8.5,0.4h-0.7
		c-0.7,0.3-0.8,17.3-0.8,18.3L187.9,61.4z M183.9,73.4c-1.9,0-5-1.5-5-4.1c0-2.9,2.2-5,4.5-5c2.3,0,4.8,1.6,4.8,4.5
		c0,3.1-2,4-3.8,4.4C184.3,73.3,184.1,73.4,183.9,73.4z"/>
</g>
</svg>
