<?xml version="1.0" encoding="utf-8"?>
<!-- Generator: Adobe Illustrator 18.1.1, SVG Export Plug-In . SVG Version: 6.00 Build 0)  -->
<!DOCTYPE svg PUBLIC "-//W3C//DTD SVG 1.1//EN" "http://www.w3.org/Graphics/SVG/1.1/DTD/svg11.dtd">
<svg version="1.1" id="Layer_1" xmlns="http://www.w3.org/2000/svg" xmlns:xlink="http://www.w3.org/1999/xlink" x="0px" y="0px"
	 viewBox="0 0 500 500" enable-background="new 0 0 500 500" xml:space="preserve">
<path fill="#FFFFFF" d="M8.6,248.6C8.6,115.7,116.7,8,250,8c133.3,0,241.4,107.7,241.4,240.6c0,132.9-108.1,240.6-241.4,240.6
	C116.7,489.2,8.6,381.5,8.6,248.6z M265.7,350.8c-2.8,12.6-8,29.8-13.5,29.9c-7.6-0.3-23.1-28.3-16.6-42.5c-5.5-1.6-7.1-21-1.8-23.6
	c-7.9-6.1-6-22.4-2.4-26.1c-7.2-6-4.2-27.2,0-30.7c-5.8-10.2-4.5-23.1,0.2-29.7c-7-5.8-2.5-23.6,0.9-29.7c3.4-6.2,9-8.4,13.1-8.9
	l0.1,0c-0.9-6.6-4.1-13.2-7.2-17.6c-5.6-8.2-12.4-13.1-21.7-20.7c-1.9-11.5,13.2-8.1,18.8-3.2c-1.2-8.5-7.7-15.6-1.4-26
	c0.1,1.8,2,2.9,6.8,5.7c3.9-10.5-5.1-17.4,5.5-27.9c8.7,2.3,6.7,11.6,8.2,17.5c5.2-4.9,11.3-8.9,17.8-3c-3.6,3.1-2.4,13.5-4,19.5
	c5.8-0.4,8.9-10.5,14.8-10.6c4.2,1.2-0.6,4.7,3.2,6c-3.9,5-8,13.9-13.8,20.5c5.5-0.5,9.1-8.8,15.7-5.1c-1,7.7-24.1,27.2-27.4,45.1
	h0.1c14.5,4.5,12.7,23.2,13.4,23.1c14.3-1.3,47.2-8.2,47.2-9.4c0-1.7,1.3-10.6,1.3-31c0-6.5,0-14.3-0.4-23
	c-2.2-34.7-15.7-68.4-82.8-70.6h-2.2c-56.7,0-60.2,60.6-60.2,80.1v5.6c0,5.2-4.8,156.6-4.8,190.9v3.5c0.9,36.1,44,59.5,86.7,59.5
	c31.8,0,60.1-13.4,73.6-45.2c5.2-8.3,7.4-90.8,7.4-90.8l-91.9-3.9l0.4,21.7c1.8,0.5,14.5,1.8,22.7,2.7l0.1,0
	c-0.7,13.8-1.6,24.6-3.9,39.4C267,344.5,266.4,347.5,265.7,350.8z"/>
</svg>
