<?xml version="1.0" encoding="utf-8"?>
<!-- Generator: Adobe Illustrator 18.1.1, SVG Export Plug-In . SVG Version: 6.00 Build 0)  -->
<!DOCTYPE svg PUBLIC "-//W3C//DTD SVG 1.1//EN" "http://www.w3.org/Graphics/SVG/1.1/DTD/svg11.dtd">
<svg version="1.1" id="Layer_1" xmlns="http://www.w3.org/2000/svg" xmlns:xlink="http://www.w3.org/1999/xlink" x="0px" y="0px"
	 viewBox="0 0 580.7 303.1" enable-background="new 0 0 580.7 303.1" xml:space="preserve">
<path fill="#FFFFFF" d="M358.8,247.4c0,0,0-12.5-0.3-12.6c-0.1-0.1-2.4-0.4-3.9-0.4c-0.7,0-1.2,0.1-1.2,0.3v3.6v9.9v0.3
	c0,0.9,0.2,3.2,4.2,3.7c4.4,0.5,9.9,0.9,10.8,1.9c1,1,2.3,0.8,2.3,6.2c0,4.7,0.5,19.6,0.5,23.8v1.1c-0.3,1-1.4,5.7-6.2,5.9
	c-1.6,0.1-3.9,0.1-6.4,0.1c-4.8,0-10.1-0.1-10.7-0.1c-0.8,0-5.9-1.7-5.9-5.6c0-4,0.6-18.1,0.6-18.1l12.2-0.1c0,0-0.2,7.1-0.2,10.7
	c0,1.2,0.1,2.1,0.1,2.2c0.3,0.3,1,1.6,2.5,1.6c1.6,0,3.5-1,3.5-2.1c0-1-0.1-18.4-0.9-18.7h-0.8c-2.1,0-7.4,0.2-10,0.2h-1.2
	c-1.7-0.3-6.3-1.6-6.3-5.2c0-3.7,1-21.3,1-22.9c0-1.6,2.8-8,7.2-8.9c2.1-0.5,3.7-0.7,5-0.7c1.3,0,2.5,0.2,4,0.5
	c1.8,0.4,5.8,1.7,7.4,4.3c1.5,2.6,2.9,9.3,3.1,11.3v3v5H358.8z"/>
<path fill="#FFFFFF" d="M379.1,303.1c-0.1-0.4-0.1-8.1-0.1-15.9c0-15.6,0.1-41.6,0.1-60.9l12.3,0.2l1.5,6c1.8-3.1,3.1-7.2,10.7-7.2
	c7.6,0,9.9,9.6,9.9,10.4c0,0.9,1.3,39.8,1.3,43.3c0,3.5-3.4,8.8-10.3,8.9h-0.4c-4.7,0-9.2-1.4-9.4-1.4c-0.1,0-0.1,1.6-0.1,3.5v5
	c0,2.1-0.1,3.8-0.1,8L379.1,303.1z M392,268.9c0.1,2.5,1.9,5.6,5.3,5.6c3.3,0,4.4-4.6,4.5-5.4v-0.6c0-4.2-0.5-27.2-0.6-28.8
	c-0.1-1.8-1.8-4.7-4.5-4.7c-2.7,0-4.7,4.2-4.7,4.2S391.8,266.3,392,268.9z"/>
<path fill="#FFFFFF" d="M454.3,282.4c-1.3,7.5-7.6,10.7-14.6,10.7c-9.1,0-19.2-5.5-19.4-13.6v-0.8c0-7.6,1.3-40.5,1.3-41.7v-1.3
	c0-4.4,0.9-18.6,15.7-18.6h0.6c17.6,0.5,18.3,8.1,18.8,16c0.1,2,0.1,4.1,0.1,6.4c0,6.6-0.3,13.3-0.3,13.7c0,0.5-18.4,3.2-19.5,3.2
	c-1,0-2.2,11-2.2,15c0,5.2,1.3,5.5,3.6,5.5h0.6c4.3-0.1,5.1,0.4,5.1-3.1c0-3.3-0.1-7-0.1-11.5l12.2,1.1
	C456.2,263.4,455.6,280.6,454.3,282.4z M437.7,244.7c3.5,0,8.6-0.7,8.6-0.9c0-0.1,0.1-1.1,0.1-2.5c0-4.3-0.6-12.4-5.1-12.4
	c-6,0-6.8,13.5-6.8,15C434.4,244.5,435.9,244.7,437.7,244.7z"/>
<path fill="#FFFFFF" d="M497.5,242.6c0,0.1-0.3,0.2-0.9,0.2c-1.9,0-6.5-0.6-9.7-0.7l-0.2-4.6c0.3-0.8-0.5-1.4-1.3-1.4
	c0,0-7.5,0.1-10.8,0.1c0.5,13.2,1.4,29.9,1.4,36.2v1.8c-0.1,1.7-0.3,3-0.3,3.8c0,1,0.2,1.5,0.9,1.9c0.6,0.3,2.2,0.6,4.1,0.6
	c1.8,0,3.8-0.2,5.2-0.6c1.4-0.4,1.6-1,1.6-1.7c0-0.2-0.1-0.6-0.1-0.9c0-0.3,0-0.6,0.2-0.9l9.8,0.3v4.5v0.1c0,3.8-4.3,8.4-8.6,8.4
	h-18.1c-6.9,0-7.2-6-7.2-7v-52.2c0-3.2,5.5-5.5,7.2-5.5c1.7,0,8,0,17.2,0.7c9.2,0.7,9.8,10.4,9.8,10.4S497.5,242.1,497.5,242.6z"/>
<path fill="#FFFFFF" d="M514.1,291.5c-3.7,0-10.5-0.7-10.5-0.7v-55.6l12.3-0.2c0,0,0.5,55.1,0.5,56.1
	C516.4,291.4,515.5,291.5,514.1,291.5z M509.8,232.5c-2.2,0-5.9-1.5-5.9-4.2c0-3,2.6-5.1,5.4-5.1c2.7,0,5.6,1.7,5.6,4.6
	c0,3.1-2.3,4.1-4.4,4.5C510.3,232.4,510.1,232.5,509.8,232.5z"/>
<path fill="#FFFFFF" d="M523.6,243.1c-1,0-1.6-0.1-1.6-0.2c0-0.3,0.2-12.8,0.2-13.7c0-0.9,2.1-7.1,9.1-7.1c2.5,0,5.5-0.2,8.5-0.2
	c5,0,9.7,0.5,11.3,3.1c2.6,4,3.4,5.1,3.4,12.9c0,7-0.6,27.8-0.6,33.2v1.2c0.6,5.5,0.4,6.3,1.9,6.3c0.5,0,1.2-0.1,2.2-0.1l0.2,12
	c0,0-5.5,0.3-9,0.3c-1.2,0-2.2-0.1-2.5-0.2c-1.5,0-4.8-1.2-4.8-4.7v-1.9c-2.4,2.3-2.8,5-8.2,5h-0.7c-6-0.2-9.9-3.2-10.3-7.7
	c-0.1-2.3-0.1-7.7-0.1-12.8v-10.2c0-1.2,2.7-5.4,11-7.2c8.2-1.8,10.7-3,11.1-4.5c0.2-1.6,0.2-10.9,0.2-11.4c0-0.4-1.2-4.1-4.4-4.1
	c-3.1,0-5.9,0.4-5.9,2.6c0,2.3-0.4,5.4-0.6,8.9C530.8,242.9,526,243.1,523.6,243.1z M538.7,280.2c1.8,0,4.3-1.4,4.3-3.1
	c0-1.7,0.3-20.4,0.3-20.4s-7.2,0.1-8.2,3.8c-0.4,1.4-0.6,4.4-0.6,7.5c0,4.7,0.4,9.9,0.9,10.4C536.2,279.3,537,280.2,538.7,280.2z"/>
<path fill="#FFFFFF" d="M563.4,289.7l2-78.9c9.3-1,8.3-1,11.4-1c0.4,0,0.6,0,0.6,0.1c0,0.4,0.3,55,0.7,80.6L563.4,289.7z"/>
<path fill="#FFFFFF" d="M400.6,205.1l2.5-96.8c0,0,10.9-1.2,14-1.2c0.5,0,0.7,0,0.7,0.1c0,0.5,0.4,64.6,0.9,98.9L400.6,205.1z"/>
<path fill="#FFFFFF" d="M434.7,139.8c-2.1,0-3.6-0.1-3.6-0.2c0-0.3-0.1-13.3-0.1-14.5c0-1.1,3.1-8.8,13.6-8.8c3.9,0,8.4-0.2,13-0.2
	c7.4,0,14.6,0.7,17,3.8c3.9,5,5.2,6.4,5.2,16.1c0,8.9-1,40.9-1,47.8v1.3c0.1,1.5,0,6.7,10.4,8.1c3,0.4,5.9,0.5,8.7,0.5
	c6.5,0,27.2-1.1,27.2-1.1l0.4,13.2c0,0-37.6,0.6-49.5,0.6c-4.4,0-7.4-0.1-7.9-0.2c-1.8-0.7-7.2-4-7.2-8.3v-4.4c0,0-4.4,6.2-13,6.2
	h-0.5c-8.9-0.2-15-3.9-15.5-9.6c-0.1-2.4-0.3-7.7-0.3-13.2c0-7.2,0.1-14.6,0.1-15.5c0-1.5,4-6.8,16.5-9c12.4-2.2,16.2-3.7,16.8-5.5
	c0.4-2,0.4-13.6,0.4-14.2c0-0.5-1.9-5.1-6.7-5.1c-4.8,0-8.9,0.4-8.9,3.3c0,2.8,0,4.1-0.4,8.5C449.3,139.5,440,139.8,434.7,139.8z
	 M453.2,188.6c2.6,0,6.5-1.7,6.5-3.8c0-2.1,0.5-25.5,0.5-25.5s-11,0.1-12.5,4.7c-0.6,1.7-0.9,5.4-0.9,9.3c0,6,0.6,12.4,1.4,13.1
	C449.5,187.5,450.7,188.6,453.2,188.6z"/>
<path fill="#FFFFFF" d="M520.3,121.3c-2.8,0-8.5-0.5-11.3-0.5c-1.1,0-1.7,0.1-1.7,0.2v2.5c0,9.1,0.3,38.4,0.3,53.5
	c0.9,0.4,2.3,0.7,3.8,0.7c2.3,0,4.4-0.3,4.4-3.2c0-2.8,0.4-13.5,0.4-13.5l12,0.1c0,0-0.7,17.4-0.8,18.8c-0.1,1.7-0.4,5-5.8,5.2
	c-5.4,0.1-10.1,0.2-13.9,0.2c-11.4,0-16-1.2-16-7.5c0-24.1,0-54.8-0.7-55c-0.7-0.1-5.5-0.1-5.5-0.6c0-0.6,0-11.3,0.3-11.3
	c0.3,0,3,0.1,4.7,0.1c0.8,0,1.5,0,1.5-0.1c0-0.5,0.9-8.4,1.2-8.4h6.6c3.4,0,6.6,0,6.6,0.1c0,0.4-0.4,6.3-0.4,8v0.4h1.1
	c3.4,0,13.6-0.1,17.1-0.1h1.1c0,0.1-2.7,9.2-3.1,9.9C522,121.2,521.4,121.3,520.3,121.3z"/>
<path fill="#FFFFFF" d="M577.7,190.5c-1.5,9-9.2,12.8-17.6,12.8c-11,0-23.1-6.7-23.3-16.4v-1c0-9.1,1.5-48.8,1.5-50.2v-1.5
	c0-5.3,1.1-22.5,19-22.5h0.7c21.1,0.6,22,9.7,22.7,19.3c0.1,2.4,0.1,5,0.1,7.7c0,8-0.4,16-0.4,16.5c0,0.6-22.1,3.9-23.5,3.9
	c-1.2,0-2.6,13.3-2.6,18c0,6.3,1.5,6.7,4.4,6.7h0.7c5.2-0.1,6.2,0.5,6.2-3.7c0-4-0.1-8.4-0.1-13.9l14.7,1.3
	C580,167.6,579.3,188.3,577.7,190.5z M557.7,145.1c4.3,0,10.3-0.8,10.3-1.1c0-0.1,0.1-1.3,0.1-3c0-5.2-0.7-15-6.2-15
	c-7.3,0-8.2,16.3-8.2,18C553.8,144.8,555.5,145.1,557.7,145.1z"/>
<g>
	<path fill="#FFFFFF" d="M343,217.1c-0.1-0.6-0.1-10.6-0.1-20.6c0-20.2,0.1-53.9,0.1-78.9l15.9,0.2l2,7.8c2.3-4,4-9.4,13.9-9.4
		c9.8,0,12.8,12.4,12.8,13.5c0,1.1,1.7,51.5,1.7,56c0,4.5-4.4,11.4-13.3,11.5h-0.5c-6,0-11.9-1.8-12.2-1.8c-0.1,0-0.1,2-0.1,4.5v6.4
		c0,2.7-0.1,5-0.1,10.3L343,217.1z M359.6,172.8c0.1,3.3,2.5,7.2,6.8,7.2c4.3,0,5.8-6,5.9-7v-0.8c0-5.4-0.7-35.1-0.8-37.3
		c-0.1-2.3-2.3-6.1-5.9-6.1c-3.5,0-6.1,5.4-6.1,5.4S359.5,169.4,359.6,172.8z"/>
</g>
<g>
	<path fill="#FFFFFF" d="M325.4,98.1c35-1.1,38.9-2.5,38.9-5.2v-0.4v-6.2c0-2.3,0-4.2-0.1-4.2c-0.3,0-6.7,1.6-12.9,1.6
		c-6.4,0-13.8-6.6-13.8-11.1c0-4.3,2.4-51,2.4-52c0-1.1,3.1-13,13.2-13c10,0,11.9,4.2,14.2,9.1l1.9-7.6l11.8-0.2
		C380.7,45,380.2,98,380,99.7c-0.3,1.7-3.4,7.1-13.3,7.7c-9.8,0.6-21.5,1.5-40.8,2.2L325.4,98.1z M360.8,22.2c-3.6,0-5.9,3.7-6,5.9
		c-0.1,2.2-1.4,30.7-1.4,34.5c0,1.4,1.6,7.1,6,7.1c4.4,0,6.8-3.8,6.9-6.9v-0.8c0-6.2-1-34.4-1-34.4S364.4,22.2,360.8,22.2z"/>
	<path fill="#FFFFFF" d="M410.6,94.9c0,0.2-3.9,0.6-8.5,0.6c-2.8,0-6-0.1-8.5-0.6c0.1-3.4,0.1-6,0.1-8v-14v-0.5
		c0-4.6-0.4-27.1-0.4-36.4c0-2.7,0.1-4.8,0.3-6.6l-2.8-0.1l-0.3-13.3l29.3-0.4c9,0.1,10,8.2,10,9.3c0,1.2,0.6,11.8,0.6,12.2
		c0,0.1-0.1,0.1-0.5,0.1c-1.8,0-8-0.9-12.9-0.9c-0.3-8-0.9-8.9-5.2-8.9c-2.4,0-2.9,0.9-2.9,2.3c0,0.9,0.3,2,0.3,3.1
		C409.2,73.1,410.3,74.7,410.6,94.9z"/>
	<path fill="#FFFFFF" d="M475.3,87.2c-1.5,8.7-8.9,12.3-16.9,12.3c-10.6,0-22.2-6.4-22.5-15.8v-0.9c0-8.8,1.5-47,1.5-48.3v-1.5
		c0-5.1,1.1-21.6,18.2-21.6h0.7c20.4,0.6,21.2,9.4,21.8,18.5c0.1,2.3,0.1,4.8,0.1,7.4c0,7.7-0.4,15.4-0.4,15.9
		c0,0.6-21.3,3.8-22.6,3.8c-1.2,0-2.5,12.8-2.5,17.4c0,6.1,1.5,6.4,4.2,6.4h0.7c5-0.1,5.9,0.5,5.9-3.5c0-3.9-0.1-8.1-0.1-13.4
		l14.1,1.3C477.5,65.2,476.9,85.1,475.3,87.2z M456.1,43.5c4.1,0,9.9-0.8,9.9-1c0-0.1,0.1-1.3,0.1-2.9c0-5-0.7-14.4-5.9-14.4
		c-7,0-7.9,15.7-7.9,17.4C452.3,43.2,454,43.5,456.1,43.5z"/>
	<path fill="#FFFFFF" d="M522.7,80.9c-1.3,7.9-8,11.2-15.4,11.2c-9.6,0-20.2-5.8-20.4-14.3V77c0-8,1.3-42.6,1.3-43.9v-1.3
		c0-4.7,1-19.6,16.6-19.6h0.6c18.5,0.5,19.2,8.5,19.8,16.8c0.1,2.1,0.1,4.4,0.1,6.7c0,7-0.4,14-0.4,14.4c0,0.5-19.3,3.4-20.5,3.4
		c-1.1,0-2.3,11.6-2.3,15.8c0,5.5,1.3,5.8,3.8,5.8h0.6c4.6-0.1,5.4,0.4,5.4-3.2c0-3.5-0.1-7.4-0.1-12.1l12.8,1.1
		C524.8,60.9,524.2,79,522.7,80.9z M505.3,41.2c3.7,0,9-0.7,9-0.9c0-0.1,0.1-1.1,0.1-2.6c0-4.6-0.6-13.1-5.4-13.1
		c-6.4,0-7.2,14.2-7.2,15.8C501.8,41,503.4,41.2,505.3,41.2z"/>
	<path fill="#FFFFFF" d="M561.1,95.5c0-0.3,1.9-63.1,1.9-64c0-1-1.1-4.2-3.2-4.2c-2.3,0-8.1,1.7-8.1,5c0,1.8,0.3,21.9,0.3,39.3
		c0,13.7-0.1,30.2-0.8,30.3c-1.5,0.3-10.3,1.8-16,1.9c0.1-5.4,0.1-15.6,0.1-21.5c0-24.2-0.5-51.4-0.5-63c0-3.3,0-5.4,0.1-5.6
		c0.5-0.9,9.8-1.7,11.9-1.7h0.3c0.4,0,0.5,1.3,0.5,2.9v5.3v2.1c4.5-3.2,7.9-8.1,18.4-8.2h0.8c5.6,0,9.7,1.4,9.7,12
		c0,11,0.9,70.3,0.9,70.3S561.1,95.7,561.1,95.5z"/>
</g>
<g display="none">
	<path display="inline" fill="#6A813B" d="M1,150.2C1,67.2,68.5,0,151.7,0c83.2,0,150.7,67.2,150.7,150.2
		c0,82.9-67.5,150.2-150.7,150.2C68.5,300.3,1,233.1,1,150.2z"/>
	<path display="inline" fill-rule="evenodd" clip-rule="evenodd" fill="#FFFFFF" d="M161.5,212.3c-1.7,7.9-5,18.6-8.4,18.6
		c-4.8-0.2-14.4-17.6-10.4-26.5c-3.4-1-4.4-13.1-1.1-14.7c-4.9-3.8-3.8-14-1.5-16.3c-4.5-3.7-2.6-17,0-19.1
		c-3.6-6.3-2.8-14.4,0.1-18.6c-4.4-3.6-1.6-14.7,0.6-18.5c2.1-3.9,5.6-5.2,8.2-5.5l0.1,0c-0.5-4.1-2.6-8.2-4.5-11
		c-3.5-5.1-7.8-8.2-13.6-12.9c-1.2-7.2,8.2-5.1,11.7-2c-0.8-5.3-4.8-9.8-0.9-16.3c0.1,1.1,1.2,1.8,4.2,3.5
		c2.4-6.6-3.2-10.8,3.5-17.4c5.5,1.4,4.2,7.2,5.1,10.9c3.2-3.1,7-5.5,11.1-1.9c-2.3,1.9-1.5,8.4-2.5,12.2c3.6-0.2,5.6-6.6,9.2-6.6
		c2.6,0.8-0.4,3,2,3.8c-2.5,3.1-5,8.7-8.6,12.8c3.4-0.3,5.6-5.5,9.8-3.2c-0.6,4.8-15,17-17.1,28.2h0.1c9,2.8,7.9,14.5,8.4,14.4
		c8.9-0.8,29.5-5.1,29.5-5.8c0-1.1,0.8-6.6,0.8-19.4c0-4.1,0-8.9-0.3-14.4c-1.4-21.7-9.8-42.7-51.7-44.1h-1.4
		c-35.4,0-37.6,37.8-37.6,50v3.5c0,3.3-3,97.8-3,119.2v2.2c0.5,22.5,27.5,37.1,54.1,37.1c19.9,0,37.5-8.4,46-28.2
		c3.3-5.2,4.6-56.7,4.6-56.7l-57.4-2.5l0.2,13.5c1.2,0.3,9,1.1,14.2,1.7l0.1,0c-0.4,8.6-1,15.3-2.5,24.6
		C162.3,208.4,162,210.3,161.5,212.3z"/>
</g>
<path fill="#FFFFFF" d="M1,150.8C1,67.5,68.8,0,152.4,0C236,0,303.7,67.5,303.7,150.8c0,83.3-67.8,150.8-151.4,150.8
	C68.8,301.6,1,234.1,1,150.8z M162.2,214.9c-1.8,7.9-5,18.7-8.5,18.7c-4.8-0.2-14.5-17.7-10.4-26.7c-3.4-1-4.4-13.2-1.1-14.8
	c-4.9-3.8-3.8-14-1.5-16.4c-4.5-3.7-2.6-17.1,0-19.2c-3.6-6.4-2.8-14.5,0.1-18.6c-4.4-3.7-1.6-14.8,0.6-18.6
	c2.1-3.9,5.7-5.3,8.2-5.6l0.1,0c-0.5-4.1-2.6-8.3-4.5-11c-3.5-5.1-7.8-8.2-13.6-13c-1.2-7.2,8.3-5.1,11.8-2
	c-0.8-5.3-4.8-9.8-0.9-16.3c0.1,1.1,1.2,1.8,4.2,3.5c2.4-6.6-3.2-10.9,3.5-17.5c5.5,1.4,4.2,7.3,5.2,10.9c3.2-3.1,7.1-5.6,11.1-1.9
	c-2.3,1.9-1.5,8.5-2.5,12.2c3.6-0.2,5.6-6.6,9.3-6.7c2.6,0.8-0.4,3,2,3.8c-2.5,3.1-5,8.7-8.7,12.8c3.5-0.3,5.7-5.5,9.8-3.2
	c-0.6,4.8-15.1,17-17.2,28.3h0.1c9.1,2.8,7.9,14.5,8.4,14.5c9-0.8,29.6-5.1,29.6-5.9c0-1.1,0.8-6.7,0.8-19.5c0-4.1,0-9-0.3-14.4
	c-1.4-21.8-9.9-42.9-51.9-44.2h-1.4c-35.5,0-37.7,38-37.7,50.2v3.5c0,3.3-3,98.2-3,119.7v2.2c0.5,22.6,27.6,37.3,54.4,37.3
	c20,0,37.7-8.4,46.2-28.3c3.3-5.2,4.6-56.9,4.6-56.9l-57.6-2.5l0.2,13.6c1.2,0.3,9.1,1.1,14.2,1.7l0.1,0c-0.4,8.7-1,15.4-2.5,24.7
	C163,211,162.6,212.8,162.2,214.9z"/>
</svg>
