<?xml version="1.0" encoding="utf-8"?>
<!-- Generator: Adobe Illustrator 18.1.1, SVG Export Plug-In . SVG Version: 6.00 Build 0)  -->
<!DOCTYPE svg PUBLIC "-//W3C//DTD SVG 1.1//EN" "http://www.w3.org/Graphics/SVG/1.1/DTD/svg11.dtd">
<svg version="1.1" id="Layer_1" xmlns="http://www.w3.org/2000/svg" xmlns:xlink="http://www.w3.org/1999/xlink" x="0px" y="0px"
	 viewBox="0 0 491.1 75.5" enable-background="new 0 0 491.1 75.5" xml:space="preserve">
<ellipse fill="none" cx="37.9" cy="37.8" rx="37.9" ry="37.8"/>
<path fill-rule="evenodd" clip-rule="evenodd" fill="none" d="M40.4,53.4c-0.4,2-1.3,4.7-2.1,4.7c-1.2,0-3.6-4.4-2.6-6.7
	c-0.9-0.3-1.1-3.3-0.3-3.7c-1.2-1-0.9-3.5-0.4-4.1c-1.1-0.9-0.7-4.3,0-4.8c-0.9-1.6-0.7-3.6,0-4.7c-1.1-0.9-0.4-3.7,0.1-4.7
	c0.5-1,1.4-1.3,2.1-1.4l0,0c-0.1-1-0.6-2.1-1.1-2.8c-0.9-1.3-2-2.1-3.4-3.2c-0.3-1.8,2.1-1.3,3-0.5c-0.2-1.3-1.2-2.5-0.2-4.1
	c0,0.3,0.3,0.5,1.1,0.9c0.6-1.7-0.8-2.7,0.9-4.4c1.4,0.4,1,1.8,1.3,2.7c0.8-0.8,1.8-1.4,2.8-0.5c-0.6,0.5-0.4,2.1-0.6,3.1
	c0.9-0.1,1.4-1.7,2.3-1.7c0.7,0.2-0.1,0.7,0.5,0.9c-0.6,0.8-1.3,2.2-2.2,3.2c0.9-0.1,1.4-1.4,2.5-0.8c-0.2,1.2-3.8,4.3-4.3,7.1h0
	c2.3,0.7,2,3.6,2.1,3.6c2.2-0.2,7.4-1.3,7.4-1.5c0-0.3,0.2-1.7,0.2-4.9c0-1,0-2.3-0.1-3.6c-0.3-5.5-2.5-10.7-13-11.1h-0.3
	c-8.9,0-9.4,9.5-9.4,12.6v0.9c0,0.8-0.8,24.6-0.8,30v0.5c0.1,5.7,6.9,9.3,13.6,9.3c5,0,9.4-2.1,11.6-7.1c0.8-1.3,1.2-14.3,1.2-14.3
	l-14.4-0.6l0.1,3.4c0.3,0.1,2.3,0.3,3.6,0.4l0,0c-0.1,2.2-0.2,3.9-0.6,6.2C40.6,52.4,40.5,52.9,40.4,53.4z"/>
<g>
	<path fill="none" d="M370.6,32.9c0,0,0-7.9-0.2-8c0-0.1-1.3-0.3-2.2-0.3c-0.4,0-0.7,0.1-0.7,0.2v2.3v6.2v0.2c0,0.6,0.1,2.1,2.3,2.3
		c2.4,0.3,5.4,0.6,5.9,1.2c0.6,0.7,1.3,0.5,1.3,3.9c0,3,0.3,12.4,0.3,15.1v0.7c-0.2,0.6-0.8,3.6-3.4,3.7c-0.9,0.1-2.2,0.1-3.5,0.1
		c-2.7,0-5.5-0.1-5.9-0.1c-0.4,0-3.3-1-3.3-3.5c0-2.5,0.3-11.5,0.3-11.5l6.7-0.1c0,0-0.1,4.5-0.1,6.8c0,0.8,0.1,1.3,0.1,1.4
		c0.2,0.2,0.5,1,1.4,1c0.9,0,1.9-0.7,1.9-1.3c0-0.7-0.1-11.7-0.5-11.8h-0.4c-1.2,0-4.1,0.1-5.5,0.1h-0.7c-0.9-0.2-3.4-1-3.4-3.3
		c0-2.3,0.6-13.5,0.6-14.5c0-1,1.5-5.1,3.9-5.6c1.2-0.3,2.1-0.4,2.8-0.4c0.7,0,1.4,0.1,2.2,0.3c1,0.3,3.2,1.1,4.1,2.7
		c0.8,1.7,1.6,5.9,1.7,7.1v1.9v3.2H370.6z"/>
	<path fill="none" d="M381.7,68.1c0-0.3,0-5.1,0-10.1c0-9.9,0-26.4,0-38.6l6.8,0.1l0.8,3.8c1-1.9,1.7-4.6,5.9-4.6
		c4.2,0,5.4,6.1,5.4,6.6c0,0.5,0.7,25.2,0.7,27.4c0,2.2-1.9,5.6-5.7,5.6h-0.2c-2.6,0-5.1-0.9-5.2-0.9c-0.1,0-0.1,1-0.1,2.2V63
		c0,1.3-0.1,2.4-0.1,5L381.7,68.1z M388.8,46.5c0.1,1.6,1,3.5,2.9,3.5c1.8,0,2.4-2.9,2.5-3.4v-0.4c0-2.7-0.3-17.2-0.3-18.2
		c-0.1-1.1-1-3-2.5-3c-1.5,0-2.6,2.6-2.6,2.6S388.7,44.9,388.8,46.5z"/>
	<path fill="none" d="M423,55.1c-0.7,4.8-4.2,6.8-8,6.8c-5,0-10.5-3.5-10.7-8.6v-0.5c0-4.8,0.7-25.7,0.7-26.4v-0.8
		c0-2.8,0.5-11.8,8.7-11.8h0.3c9.7,0.3,10,5.1,10.3,10.1c0.1,1.2,0.1,2.6,0.1,4.1c0,4.2-0.2,8.4-0.2,8.7c0,0.3-10.1,2.1-10.7,2.1
		c-0.6,0-1.2,7-1.2,9.5c0,3.3,0.7,3.5,2,3.5h0.3c2.4-0.1,2.8,0.3,2.8-1.9c0-2.1-0.1-4.4-0.1-7.3l6.7,0.7
		C424.1,43,423.8,53.9,423,55.1z M413.9,31.2c1.9,0,4.7-0.4,4.7-0.6c0-0.1,0.1-0.7,0.1-1.6c0-2.7-0.3-7.9-2.8-7.9
		c-3.3,0-3.8,8.6-3.8,9.5C412.1,31,412.9,31.2,413.9,31.2z"/>
	<path fill="none" d="M446.8,29.9c0,0.1-0.2,0.1-0.5,0.1c-1.1,0-3.6-0.4-5.3-0.5l-0.1-2.9c0.2-0.5-0.3-0.9-0.7-0.9c0,0-4.1,0-6,0
		c0.3,8.4,0.8,19,0.8,22.9v1.2c-0.1,1.1-0.1,1.9-0.1,2.4c0,0.6,0.1,0.9,0.5,1.2c0.3,0.2,1.2,0.4,2.3,0.4c1,0,2.1-0.2,2.8-0.4
		c0.7-0.3,0.9-0.6,0.9-1.1c0-0.1-0.1-0.4-0.1-0.6c0-0.2,0-0.4,0.1-0.6l5.4,0.2v2.8v0.1c0,2.4-2.4,5.3-4.7,5.3h-10
		c-3.8,0-3.9-3.8-3.9-4.4V22.2c0-2,3-3.5,3.9-3.5c1,0,4.4,0,9.5,0.5c5.1,0.5,5.4,6.6,5.4,6.6S446.8,29.6,446.8,29.9z"/>
	<path fill="none" d="M455.9,60.8c-2.1,0-5.8-0.4-5.8-0.4V25.2l6.8-0.1c0,0,0.3,34.9,0.3,35.6C457.2,60.8,456.7,60.8,455.9,60.8z
		 M453.5,23.5c-1.2,0-3.2-0.9-3.2-2.7c0-1.9,1.5-3.2,3-3.2c1.5,0,3.1,1,3.1,2.9c0,2-1.3,2.6-2.4,2.9
		C453.8,23.4,453.7,23.5,453.5,23.5z"/>
	<path fill="none" d="M461.2,30.2c-0.6,0-0.9-0.1-0.9-0.1c0-0.2,0.1-8.1,0.1-8.7c0-0.6,1.2-4.5,5-4.5c1.4,0,3.1-0.1,4.7-0.1
		c2.8,0,5.3,0.3,6.2,1.9c1.4,2.5,1.9,3.3,1.9,8.2c0,4.4-0.3,17.6-0.3,21v0.8c0.3,3.5,0.2,4,1.1,4c0.3,0,0.7-0.1,1.2-0.1l0.1,7.6
		c0,0-3,0.2-4.9,0.2c-0.7,0-1.2-0.1-1.4-0.1c-0.8,0-2.6-0.8-2.6-3v-1.2c-1.3,1.4-1.6,3.1-4.5,3.1h-0.4c-3.3-0.1-5.4-2-5.7-4.9
		c-0.1-1.4-0.1-4.9-0.1-8.1v-6.5c0-0.8,1.5-3.4,6-4.6c4.5-1.1,5.9-1.9,6.1-2.8c0.1-1,0.1-6.9,0.1-7.2c0-0.3-0.7-2.6-2.4-2.6
		c-1.7,0-3.2,0.2-3.2,1.7c0,1.4-0.2,3.4-0.3,5.6C465.1,30,462.5,30.2,461.2,30.2z M469.4,53.7c1,0,2.4-0.9,2.4-1.9
		c0-1.1,0.2-12.9,0.2-12.9s-3.9,0.1-4.5,2.4c-0.2,0.9-0.3,2.8-0.3,4.7c0,3,0.2,6.3,0.5,6.6C468.1,53.1,468.5,53.7,469.4,53.7z"/>
	<path fill="none" d="M483,59.7l1.1-50c5.1-0.6,4.6-0.6,6.3-0.6c0.2,0,0.3,0,0.3,0.1c0,0.3,0.2,34.9,0.4,51.1L483,59.7z"/>
</g>
<g>
	<path fill="none" d="M260.4,63.3l1.2-54.1c0,0,5.3-0.7,6.8-0.7c0.2,0,0.4,0,0.4,0.1c0,0.3,0.2,36.2,0.4,55.4L260.4,63.3z"/>
	<path fill="none" d="M276.9,26.7c-1,0-1.8-0.1-1.8-0.1c0-0.2-0.1-7.4-0.1-8.1c0-0.6,1.5-4.9,6.6-4.9c1.9,0,4.1-0.1,6.3-0.1
		c3.6,0,7.1,0.4,8.3,2.1c1.9,2.8,2.5,3.6,2.5,9c0,5-0.5,22.9-0.5,26.7v0.7c0.1,0.9,0,3.8,5.1,4.5c1.5,0.2,2.9,0.3,4.2,0.3
		c3.2,0,13.2-0.6,13.2-0.6l0.2,7.4c0,0-18.2,0.4-24,0.4c-2.1,0-3.6-0.1-3.9-0.1c-0.9-0.4-3.5-2.3-3.5-4.6v-2.4c0,0-2.1,3.5-6.3,3.5
		H283c-4.3-0.1-7.3-2.2-7.5-5.4c-0.1-1.3-0.1-4.3-0.1-7.4c0-4,0.1-8.2,0.1-8.6c0-0.8,2-3.8,8-5.1c6-1.2,7.9-2.1,8.1-3.1
		c0.2-1.1,0.2-7.6,0.2-7.9c0-0.3-0.9-2.9-3.2-2.9c-2.3,0-4.3,0.2-4.3,1.8c0,1.6,0,2.3-0.2,4.8C284,26.6,279.5,26.7,276.9,26.7z
		 M285.9,54c1.3,0,3.2-1,3.2-2.1c0-1.2,0.2-14.3,0.2-14.3s-5.3,0.1-6.1,2.6c-0.3,1-0.4,3-0.4,5.2c0,3.4,0.3,6.9,0.7,7.3
		C284.1,53.4,284.7,54,285.9,54z"/>
	<path fill="none" d="M318.5,16.3c-1.4,0-4.1-0.3-5.5-0.3c-0.5,0-0.8,0.1-0.8,0.1v1.4c0,5.1,0.1,21.5,0.1,29.9
		c0.5,0.2,1.1,0.4,1.8,0.4c1.1,0,2.2-0.2,2.2-1.8c0-1.6,0.2-7.6,0.2-7.6l5.8,0.1c0,0-0.3,9.7-0.4,10.5c-0.1,1-0.2,2.8-2.8,2.9
		c-2.6,0.1-4.9,0.1-6.7,0.1c-5.6,0-7.8-0.6-7.8-4.2c0-13.5,0-30.7-0.3-30.8c-0.3-0.1-2.7-0.1-2.7-0.3c0-0.3,0-6.3,0.1-6.3
		c0.1,0,1.4,0.1,2.3,0.1c0.4,0,0.7,0,0.7-0.1c0-0.3,0.5-4.7,0.6-4.7h3.2c1.6,0,3.2,0,3.2,0.1c0,0.2-0.2,3.5-0.2,4.5v0.2h0.5
		c1.6,0,6.6-0.1,8.3-0.1h0.5c0,0.1-1.3,5.2-1.5,5.6C319.3,16.3,319,16.3,318.5,16.3z"/>
	<path fill="none" d="M346.3,55.1c-0.7,5.1-4.5,7.2-8.5,7.2c-5.3,0-11.2-3.7-11.3-9.2v-0.5c0-5.1,0.7-27.3,0.7-28.1v-0.9
		c0-3,0.5-12.6,9.2-12.6h0.3c10.3,0.3,10.7,5.5,11,10.8c0.1,1.3,0.1,2.8,0.1,4.3c0,4.5-0.2,9-0.2,9.2c0,0.3-10.7,2.2-11.4,2.2
		c-0.6,0-1.3,7.4-1.3,10.1c0,3.5,0.7,3.7,2.1,3.7h0.3c2.5-0.1,3,0.3,3-2.1c0-2.3-0.1-4.7-0.1-7.8l7.1,0.7
		C347.5,42.3,347.1,53.8,346.3,55.1z M336.7,29.7c2.1,0,5-0.5,5-0.6c0-0.1,0.1-0.7,0.1-1.7c0-2.9-0.3-8.4-3-8.4c-3.5,0-4,9.1-4,10.1
		C334.7,29.5,335.6,29.7,336.7,29.7z"/>
	<g>
		<path fill="none" d="M232.4,69.9c-0.1-0.3-0.1-5.9-0.1-11.5c0-11.3,0.1-30.2,0.1-44.1l7.7,0.1l1,4.4c1.1-2.2,2-5.3,6.7-5.3
			c4.8,0,6.2,7,6.2,7.5c0,0.6,0.8,28.8,0.8,31.4c0,2.5-2.2,6.4-6.5,6.5h-0.3c-2.9,0-5.8-1-5.9-1c-0.1,0-0.1,1.1-0.1,2.5V64
			c0,1.5-0.1,2.8-0.1,5.8L232.4,69.9z M240.4,45.2c0.1,1.8,1.2,4.1,3.3,4.1c2.1,0,2.8-3.4,2.9-3.9v-0.4c0-3-0.3-19.7-0.4-20.9
			c-0.1-1.3-1.1-3.4-2.9-3.4c-1.7,0-3,3-3,3S240.4,43.3,240.4,45.2z"/>
	</g>
</g>
<g>
	<path fill="none" d="M95.8,62.8c17-0.6,18.9-1.4,18.9-2.9v-0.2v-3.5c0-1.3,0-2.4-0.1-2.4c-0.1,0-3.2,0.9-6.3,0.9
		c-3.1,0-6.7-3.7-6.7-6.2c0-2.4,1.2-29.2,1.2-29.7c0-0.6,1.5-7.3,6.4-7.3c4.9,0,5.8,2.4,6.9,5.1l0.9-4.3l5.7-0.1
		c-0.1,20.2-0.3,50.5-0.4,51.5c-0.1,1-1.6,4-6.5,4.3c-4.8,0.4-10.4,0.8-19.8,1.2L95.8,62.8z M113,19.6c-1.8,0-2.9,2.1-2.9,3.3
		c-0.1,1.2-0.7,17.8-0.7,20c0,0.8,0.8,3.9,2.9,3.9c2.1,0,3.3-2.1,3.4-3.9v-0.4c0-3.5-0.5-19.9-0.5-19.9S114.7,19.6,113,19.6z"/>
	<path fill="none" d="M137.1,61c0,0.1-1.9,0.3-4.1,0.3c-1.4,0-2.9-0.1-4.1-0.3c0.1-1.9,0.1-3.4,0.1-4.5v-7.9v-0.3
		c0-2.6-0.2-15.2-0.2-20.4c0-1.5,0.1-2.7,0.1-3.7l-1.4-0.1l-0.1-7.4l14.2-0.2c4.4,0.1,4.9,4.6,4.9,5.2c0,0.7,0.3,6.6,0.3,6.8
		c0,0.1-0.1,0.1-0.2,0.1c-0.9,0-3.9-0.5-6.3-0.5c-0.1-4.5-0.4-5-2.5-5c-1.2,0-1.4,0.5-1.4,1.3c0,0.5,0.1,1.1,0.1,1.7
		C136.5,48.8,137,49.7,137.1,61z"/>
	<path fill="none" d="M168.6,56.7c-0.7,4.9-4.3,6.9-8.2,6.9c-5.1,0-10.8-3.6-10.9-8.8v-0.5c0-4.9,0.7-26.3,0.7-27v-0.8
		c0-2.9,0.5-12.1,8.9-12.1h0.3c9.9,0.3,10.3,5.2,10.6,10.4c0.1,1.3,0.1,2.7,0.1,4.2c0,4.3-0.2,8.6-0.2,8.9c0,0.3-10.3,2.1-11,2.1
		c-0.6,0-1.2,7.2-1.2,9.7c0,3.4,0.7,3.6,2.1,3.6h0.3c2.4-0.1,2.9,0.3,2.9-2c0-2.2-0.1-4.5-0.1-7.5l6.9,0.7
		C169.7,44.4,169.3,55.5,168.6,56.7z M159.3,32.2c2,0,4.8-0.4,4.8-0.6c0-0.1,0.1-0.7,0.1-1.6c0-2.8-0.3-8.1-2.9-8.1
		c-3.4,0-3.9,8.8-3.9,9.7C157.4,32.1,158.2,32.2,159.3,32.2z"/>
	<path fill="none" d="M191.6,53.2c-0.6,4.4-3.9,6.3-7.5,6.3c-4.7,0-9.8-3.2-9.9-8V51c0-4.5,0.6-23.9,0.6-24.6v-0.8
		c0-2.6,0.5-11,8-11h0.3c9,0.3,9.3,4.8,9.6,9.4c0.1,1.2,0.1,2.4,0.1,3.8c0,3.9-0.2,7.8-0.2,8.1c0,0.3-9.4,1.9-10,1.9
		c-0.5,0-1.1,6.5-1.1,8.8c0,3.1,0.6,3.3,1.9,3.3h0.3c2.2-0.1,2.6,0.2,2.6-1.8c0-2-0.1-4.1-0.1-6.8l6.2,0.6
		C192.6,42,192.3,52.1,191.6,53.2z M183.1,30.9c1.8,0,4.4-0.4,4.4-0.5c0-0.1,0.1-0.6,0.1-1.4c0-2.6-0.3-7.3-2.6-7.3
		c-3.1,0-3.5,8-3.5,8.8C181.5,30.8,182.2,30.9,183.1,30.9z"/>
	<path fill="none" d="M210.2,61.3c0-0.2,0.9-35.3,0.9-35.8c0-0.6-0.5-2.4-1.5-2.4c-1.1,0-3.9,1-3.9,2.8c0,1,0.1,12.3,0.1,22
		c0,7.7-0.1,16.9-0.4,17c-0.7,0.2-5,1-7.8,1.1c0.1-3,0.1-8.7,0.1-12.1c0-13.6-0.3-28.8-0.3-35.2c0-1.9,0-3,0.1-3.1
		c0.3-0.5,4.8-1,5.8-1h0.1c0.2,0,0.3,0.7,0.3,1.6v2.9v1.2c2.2-1.8,3.9-4.5,8.9-4.6h0.4c2.7,0,4.7,0.8,4.7,6.7
		c0,6.1,0.4,39.3,0.4,39.3S210.2,61.4,210.2,61.3z"/>
</g>
</svg>
