<?xml version="1.0" encoding="utf-8"?>
<!-- Generator: Adobe Illustrator 18.1.1, SVG Export Plug-In . SVG Version: 6.00 Build 0)  -->
<!DOCTYPE svg PUBLIC "-//W3C//DTD SVG 1.1//EN" "http://www.w3.org/Graphics/SVG/1.1/DTD/svg11.dtd">
<svg version="1.1" id="Layer_1" xmlns="http://www.w3.org/2000/svg" xmlns:xlink="http://www.w3.org/1999/xlink" x="0px" y="0px"
	 viewBox="0 0 272.1 139.8" enable-background="new 0 0 272.1 139.8" xml:space="preserve">
<path fill="#FFFFFF" d="M0,46.1c13.9-0.5,15.5-1.1,15.5-2.4v-0.2v-2.8c0-1.1,0-1.9,0-1.9c-0.1,0-2.6,0.8-5.1,0.8
	c-2.5,0-5.5-3-5.5-5.1c0-2,1-25.4,1-25.9c0-0.5,1.2-6,5.2-6c4,0,4.7,1.9,5.6,4.2l0.8-3.5l4.7-0.1c-0.1,16.6-0.2,43-0.3,43.8
	c-0.1,0.8-1.3,3.3-5.3,3.5c-3.9,0.3-8.5,0.7-16.2,1L0,46.1z M14.1,9.2c-1.4,0-2.3,1.7-2.4,2.7c-0.1,1-0.6,16.1-0.6,17.8
	c0,0.7,0.6,3.3,2.4,3.3c1.7,0,2.7-1.7,2.7-3.2v-0.4c0-2.8-0.4-17.8-0.4-17.8S15.5,9.2,14.1,9.2z"/>
<path fill="#FFFFFF" d="M36.3,41.9c0,0.1-1.5,0.3-3.3,0.3c-1.1,0-2.3-0.1-3.4-0.3c0-1.5,0-2.7,0-3.6v-6.4v-0.2
	c0-2.1-0.2-12.3-0.2-16.6c0-1.2,0.1-2.2,0.1-3l-1.1,0l-0.1-6L40,5.7c3.5,0.1,4,3.8,4,4.2c0,0.6,0.2,5.4,0.2,5.5c0,0.1,0,0.1-0.2,0.1
	c-0.7,0-3.2-0.4-5.1-0.4c-0.1-3.7-0.3-4-2-4c-1,0-1.2,0.4-1.2,1c0,0.4,0.1,0.9,0.1,1.4C35.8,32,36.2,32.7,36.3,41.9z"/>
<path fill="#FFFFFF" d="M65.3,37.6c0,0.5-0.6,3.7-3.6,3.7c-0.7,0-1.7,0.1-2.7,0.1c-3,0-6.7-0.1-7.3-0.1c-0.8,0-2.9-1.4-2.9-3.2
	c0-1.8,0.2-27.7,0.2-28.1c0-0.5,0.6-4.2,3.1-4.3c2.5-0.1,9.1-0.6,10.1-0.6h0.1c0.4,0,2.9,1.1,3.1,4.5c0,0.3,0,0.6,0,0.9
	c0,0.5,0,1.1,0,1.6v19.5C65.4,34.9,65.4,37.4,65.3,37.6z M55.7,11.5c0,5.1-0.1,12.8-0.1,17.3c0,2.3,0,3.9,0.1,3.9
	c0,0.2,4.4,0.3,4.4,0.3c0,0,0-0.4,0-1.1c0-3.4,0.3-13.8,0.4-20.2L55.7,11.5z"/>
<path fill="#FFFFFF" d="M92.4,36.8c0,4.8-1.7,5.2-3.9,5.2c-2,0-2.5-1.9-3.9-3.3V39c0,1.2-1.3,2.6-2.6,2.6c-0.9,0-1.7-0.7-2.2-2.7
	c-1.4,1.4-1.9,3.3-3.9,3.3c-2.3,0-3.9-0.4-3.9-5.3c0-4.8-0.4-26-0.4-26s2.5,0,4.1,0c0.8,0,1.4,0,1.4,0c0,0.2-0.7,22.9-0.7,23.3
	c0,0.5,0.4,1.9,1.2,1.9h0.4c0.9,0,2.5-0.2,2.6-2.5v-0.8c0-1.7-0.1-7-0.1-9.9c0-2.5,0.1-4.4,0.3-4.4l4-0.2c0,0,0.3,1.5,0.3,15.3
	c0,1.4,0.7,2.5,1.5,2.5c0.8,0,1.2-1.4,1.2-1.8c0-0.4-0.5-29.3-0.5-29.4c0,0,0.6,0,1.5,0c1.6,0,4.1,0,4.1,0S92.4,32,92.4,36.8z"/>
<path fill="#FFFFFF" d="M101.4,41.9h-2.5c-0.2,0-0.5-0.2-0.5-0.6c0-0.6,0.2-3.3,0.2-3.5c0-0.2,0.3-0.6,1-0.6h0.6h2
	c0.1,0,0.6,0.1,0.5,0.7c0,0.5,0.3,3.1,0.3,3.1S102.9,41.9,101.4,41.9z"/>
<path fill="#FFFFFF" d="M140.6,41.9l-20,0.6c0,0-5.5-0.1-6.3-0.1c-0.8,0-4.3-1.4-4.3-3.3c0-1.9,0.2-30.4,0.2-30.9
	c0-0.4,1.9-4.4,4.5-4.6l3.5-0.2h5.1l-0.5,6.4l-4.4,0.1h-1.3c-0.7,0.8-0.9,5.9-0.9,11.2c0,4.1,0.1,8.3,0.1,10.6c0,0.4,0,0.6,0,0.9
	c0,1,0.1,1.2,0.9,1.2c0.9,0,2.7-0.3,6-0.4l17.9-0.4L140.6,41.9z M141.3,21.5c0,3.3,0,5.8-0.1,6c0,0.5-0.6,3.7-3.6,3.7
	c-0.8,0-1.7,0-2.7,0c-3,0-6.7-0.1-7.3-0.1c-0.8,0-2.9-1.4-2.9-3.2c0-1.8,0.1-19.3,0.1-19.7c0-0.5,0.7-4.2,3.2-4.3
	c2.4-0.2,9.3-0.6,10.1-0.6h0.1c0.4,0.1,2.9,1.1,3.1,4.5c0.1,0.9,0.1,1.8,0.1,2.5c0,1.9-0.2,3.2-0.2,3.2S141.3,14.9,141.3,21.5z
	 M131.6,9.9c0,5.1,0,4.4,0,8.9c0,2.3,0,3.8,0,3.9c0,0.2,4.4,0.3,4.4,0.3c-0.1,0-0.1-0.4-0.1-1.1c0-3.4,0.4-5.4,0.5-11.8L131.6,9.9z"
	/>
<path fill="#FFFFFF" d="M164.2,37.6c0,0.5-0.6,3.7-3.6,3.7c-0.7,0-1.7,0.1-2.7,0.1c-3,0-6.7-0.1-7.3-0.1c-0.8,0-2.9-1.4-2.9-3.2
	c0-1.8,0.1-27.7,0.1-28.1c0-0.5,0.6-4.2,3.1-4.3c2.5-0.1,9.1-0.6,10.1-0.6h0.1c0.4,0,2.9,1.1,3.1,4.5c0.1,0.3,0.1,0.6,0.1,0.9
	c0,0.5-0.1,1.1-0.1,1.6v19.5C164.3,34.9,164.2,37.4,164.2,37.6z M154.5,11.5c0,5.1,0,12.8,0,17.3c0,2.3,0,3.9,0,3.9
	c0.1,0.2,4.4,0.3,4.4,0.3c-0.1,0-0.1-0.4-0.1-1.1c0-3.4,0.4-13.8,0.4-20.2L154.5,11.5z"/>
<path fill="#FFFFFF" d="M181.3,8.5c2.3,0.4,6,0.9,6,1c0,0.2-3,7.3-4.9,12l5.9,19.6l-6,0.7l-4.9-16.5c0,0-0.2,2.3-0.2,4.2l0.1,6.7v4
	v1.3l-5.6-0.6l0.7-30.4h-2.2c0,0,0.1-7.3,0.2-7.3c0.1,0,5,0.7,6.9,0.8v6.7l-0.1,9.8C177.1,20.5,179.6,13.2,181.3,8.5z"/>
<path fill="#FFFFFF" d="M195.6,41.9h-2.5c-0.2,0-0.5-0.2-0.5-0.6c0-0.6,0.2-3.3,0.2-3.5c0-0.2,0.4-0.6,1-0.6h0.6h2
	c0.1,0,0.6,0.1,0.5,0.7c0,0.5,0.3,3.1,0.3,3.1S197.1,41.9,195.6,41.9z"/>
<path fill="#FFFFFF" d="M218.8,36.6c-0.5,3.8-3.3,5.4-6.4,5.4c-4,0-8.4-2.8-8.5-6.9v-0.4c0-3.8,0.5-20.5,0.5-21.1v-0.6
	c0-2.3,0.4-9.4,6.9-9.4h0.3c7.7,0.3,8,4.1,8.2,8.1c0,1,0,2.1,0,3.2c0,3.3-0.2,6.8-0.2,7c0,0.2-8,1.6-8.5,1.6c-0.4,0-1,5.6-1,7.6
	c0,2.7,0.6,2.8,1.6,2.8h0.2c1.9-0.1,2.2,0.2,2.2-1.6c0-1.7,0-3.5,0-5.8l5.3,0.5C219.6,27,219.4,35.7,218.8,36.6z M211.5,17.5
	c1.6,0,3.7-0.3,3.7-0.4c0,0,0.1-0.5,0.1-1.2c0-2.2-0.3-6.3-2.2-6.3c-2.7,0-3,6.8-3,7.6C210.1,17.4,210.7,17.5,211.5,17.5z"/>
<path fill="#FFFFFF" d="M227.5,13.7c-0.8,0-1.4-0.1-1.4-0.1c0-0.2-0.1-6.1-0.1-6.6c0-0.5,1.2-4,5.4-4c1.5,0,3.3-0.1,5.1-0.1
	c2.9,0,5.8,0.3,6.7,1.7c1.5,2.3,2.1,3,2.1,7.4c0,4.1-0.4,18.8-0.4,21.9v0.6c0.1,0.7,0,3.1,4.2,3.7c1.2,0.2,2.3,0.3,3.4,0.3
	c2.6,0,9.1-0.5,9.1-0.5l0.1,6.1c0,0-13.2,0.3-17.9,0.3c-1.7,0-2.9-0.1-3.1-0.1c-0.7-0.3-2.9-1.9-2.9-3.8v-2c0,0-1.7,2.9-5.1,2.9
	h-0.2c-3.6-0.1-6-1.8-6.1-4.4c-0.1-1.1-0.1-3.6-0.1-6c0-3.3,0-6.7,0-7.1c0-0.7,1.6-3.1,6.6-4.1c4.9-1,6.5-1.7,6.6-2.6
	c0.1-0.9,0.1-6.2,0.1-6.5c0-0.2-0.8-2.3-2.6-2.3c-1.9,0-3.5,0.2-3.5,1.5c0,1.3,0,1.9-0.1,3.9C233.3,13.6,229.6,13.7,227.5,13.7z
	 M234.9,36.1c1.1,0,2.6-0.8,2.6-1.8c0-0.9,0.2-11.7,0.2-11.7s-4.3,0-4.9,2.1c-0.3,0.8-0.4,2.5-0.4,4.3c0,2.7,0.2,5.7,0.5,6
	C233.4,35.6,233.9,36.1,234.9,36.1z M259.7,7.9c-1,0-3.1-0.2-4.2-0.2c-0.4,0-0.7,0-0.7,0.1v1.1c0,3.9,0.1,17.5,0.1,24
	c0.3,0.1,0.8,0.3,1.4,0.3c0.8,0,1.6-0.2,1.6-1.3c0-1.2,0.2-5.8,0.2-5.8l4.4,0c0,0-0.2,7.4-0.3,8c-0.1,0.7-0.1,2.1-2.1,2.2
	c-2,0.1-3.7,0.1-5.1,0.1c-4.3,0-5.9-0.5-5.9-3.2c0-10.3,0-24.6-0.3-24.7c-0.3,0-2,0-2-0.2c0-0.3,0-4.9,0.1-4.9
	c0.1,0,1.1,0.1,1.7,0.1c0.3,0,0.6,0,0.6-0.1c0-0.2,0.3-3.6,0.4-3.6h2.4c1.3,0,2.5,0,2.5,0.1c0,0.2-0.2,2.7-0.2,3.4v0.2h0.4
	c1.3,0,5.1-0.1,6.4-0.1h0.4c0,0.1-1,4-1.2,4.2C260.4,7.9,260.1,7.9,259.7,7.9z"/>
<path fill="#FFFFFF" d="M270.1,41.9h-2.5c-0.2,0-0.5-0.2-0.5-0.6c0-0.6,0.2-3.3,0.2-3.5c0-0.2,0.4-0.6,1-0.6h0.6h2
	c0.1,0,0.6,0.1,0.5,0.7c0,0.5,0.3,3.1,0.3,3.1S271.6,41.9,270.1,41.9z"/>
<g>
	<path fill="#FFFFFF" d="M88.2,57.3l10.2,1.5v0.1h1.2l-0.3,5.5l-1-0.3c-0.2,22-0.4,51.2-0.4,51.4c0,0.3,2.6-0.5,2.6-0.2
		c0,0.2,0.3,8.6,0.3,8.6c0-0.1-21.7-0.3-23.2-0.3c-1.5,0-8.6-1.2-9.1-6.8c-0.2-1.9-0.3-5.7-0.3-10.1c0-8.7,0.3-19.4,0.3-20
		c0-6.4,5.3-6.6,5.8-6.6c5.5,0,12.1,0.3,15.1,0.3L88.2,57.3z M80.1,88.2c-2,0-3.4,0.4-3.4,2.1v1.3c0,5.4-0.4,19.7-0.4,20.1
		c0,0.4,0.3,3,2.7,3.2c0.4,0,0.9,0.1,1.4,0.1c2.3,0,5.3-0.3,6.7-0.4l-0.3-25.8C84.7,88.6,82.1,88.2,80.1,88.2z"/>
	<path fill="#FFFFFF" d="M117.9,124c-3.2,0-8.9-0.7-8.9-0.7V68.9l10.4-0.2c0,0,0.4,53.9,0.4,54.9C119.8,123.9,119,124,117.9,124z
		 M114.2,66.2c-1.9,0-5-1.5-5-4.1c0-2.9,2.2-5,4.5-5c2.3,0,4.8,1.6,4.8,4.5c0,3.1-2,4-3.8,4.4C114.6,66.2,114.4,66.2,114.2,66.2z"/>
	<path fill="#FFFFFF" d="M119.6,130.7c23.8-0.8,26.5-2,26.5-4.1v-0.3v-4.9c0-1.8,0-3.3-0.1-3.3c-0.2,0-4.5,1.3-8.8,1.3
		c-4.4,0-9.4-5.2-9.4-8.7c0-3.4,1.6-43.5,1.6-44.3c0-0.9,2.1-10.3,9-10.3c6.8,0,8.1,3.3,9.7,7.2l1.3-6l8-0.2
		c-0.1,28.4-0.4,73.5-0.6,74.8c-0.2,1.4-2.3,5.5-9.1,6.1c-6.7,0.5-14.6,1.2-27.8,1.7L119.6,130.7z M143.7,67.6c-2.5,0-4,2.9-4.1,4.6
		c-0.1,1.7-0.9,27.5-0.9,30.5c0,1.1,1.1,5.6,4.1,5.6c3,0,4.6-3,4.7-5.5v-0.6c0-4.9-0.7-30.4-0.7-30.4S146.1,67.6,143.7,67.6z"/>
	<path fill="#FFFFFF" d="M157.8,130.7c23.8-0.8,26.5-2,26.5-4.1v-0.3v-4.9c0-1.8,0-3.3-0.1-3.3c-0.2,0-4.5,1.3-8.8,1.3
		c-4.4,0-9.4-5.2-9.4-8.7c0-3.4,1.6-43.5,1.6-44.3c0-0.9,2.1-10.3,9-10.3c6.8,0,8.1,3.3,9.7,7.2l1.3-6l8-0.2
		c-0.1,28.4-0.4,73.5-0.6,74.8c-0.2,1.4-2.3,5.5-9,6.1c-6.7,0.5-14.6,1.2-27.8,1.7L157.8,130.7z M181.8,67.6c-2.5,0-4,2.9-4.1,4.6
		c-0.1,1.7-0.9,27.5-0.9,30.5c0,1.1,1.1,5.6,4.1,5.6c3,0,4.6-3,4.7-5.5v-0.6c0-4.9-0.7-30.4-0.7-30.4S184.3,67.6,181.8,67.6z"/>
	<path fill="#FFFFFF" d="M210.4,124c-3.2,0-8.9-0.7-8.9-0.7V68.9l10.4-0.2c0,0,0.4,53.9,0.4,54.9C212.3,123.9,211.6,124,210.4,124z
		 M206.7,66.2c-1.9,0-5-1.5-5-4.1c0-2.9,2.2-5,4.5-5c2.3,0,4.8,1.6,4.8,4.5c0,3.1-2,4-3.8,4.4C207.1,66.2,207,66.2,206.7,66.2z"/>
	<path fill="#FFFFFF" d="M242,73.9c-1.8,0-5.4-0.3-7.2-0.3c-0.7,0-1.1,0.1-1.1,0.2v1.9c0,7.8,0.2,37.6,0.2,45.2v1.8
		c-0.2,0.2-7.2,0.3-9.8,0.3h-0.9v-1.2c0-4.7,0.1-21.3,0.1-33.3c0-7.4,0-13.1-0.2-13.2c-0.4-0.1-3.2-0.1-3.2-0.4c0-0.4,0-8.3,0.2-8.3
		c0.2,0,2.2,0.1,3.5,0.1c0.7,0,1.2,0,1.2-0.1c0-0.3,0-8.9,0.2-8.9h3.8c1.9,0,3.8,0,3.8,0.1c0,0.3,0.3,7.3,0.3,8.6v0.3h0.7
		c2.1,0,8.6-0.1,10.8-0.1h0.7c0,0.1-1.7,6.8-2,7.3C243.1,73.8,242.7,73.9,242,73.9z"/>
	<path fill="#FFFFFF" d="M256.1,117.6h-0.9c-2.7,0-5.4,0.4-7,0.4c-0.7,0-1.1-0.1-1.2-0.4v-1.1c0-4.1,0.4-18.7,0.4-23.3
		c0-5.3,1.1-5,2-6.1c0.8-1,5.4-1.4,9.1-1.9c3.4-0.4,3.6-2.7,3.6-3.6v-0.3v-9.6v-3.5c0-0.2-0.4-0.3-1-0.3c-1.3,0-3.3,0.3-3.3,0.4
		c-0.3,0.1-0.9,7.4-0.9,7.4h-8.4V73c0.2-1.9,1.4-8.5,2.6-11c1.4-2.5,4.7-3.8,6.2-4.2c1.3-0.3,2.3-0.5,3.4-0.5c1.1,0,2.5,0.2,4.3,0.7
		c3.7,0.8,6.1,7.2,6.1,8.7c0,1.5,0.8,18.8,0.8,22.4c0,3.6-3.8,4.3-5.3,4.5h-1c-2.2,0-6.7,0.4-8.5,0.4h-0.7
		c-0.7,0.3-0.8,17.3-0.8,18.3L256.1,117.6z M252.1,129.5c-1.9,0-5-1.5-5-4.1c0-2.9,2.2-5,4.5-5c2.3,0,4.8,1.6,4.8,4.5
		c0,3.1-2,4-3.8,4.4C252.5,129.5,252.3,129.5,252.1,129.5z"/>
</g>
</svg>
