<?xml version="1.0" encoding="utf-8"?>
<!-- Generator: Adobe Illustrator 18.1.1, SVG Export Plug-In . SVG Version: 6.00 Build 0)  -->
<!DOCTYPE svg PUBLIC "-//W3C//DTD SVG 1.1//EN" "http://www.w3.org/Graphics/SVG/1.1/DTD/svg11.dtd">
<svg version="1.1" id="Layer_1" xmlns="http://www.w3.org/2000/svg" xmlns:xlink="http://www.w3.org/1999/xlink" x="0px" y="0px"
	 viewBox="0 0 255.3 295.4" enable-background="new 0 0 255.3 295.4" xml:space="preserve">
<path fill="#FFFFFF" d="M33.4,239.8c0,0,0-12.5-0.3-12.6c-0.1-0.1-2.4-0.4-3.9-0.4c-0.7,0-1.2,0.1-1.2,0.3v3.6v9.9v0.3
	c0,0.9,0.2,3.2,4.2,3.7c4.4,0.5,9.9,0.9,10.8,1.9c1,1,2.3,0.8,2.3,6.2c0,4.7,0.5,19.6,0.5,23.8v1.1c-0.3,1-1.4,5.7-6.2,5.9
	c-1.6,0.1-3.9,0.1-6.4,0.1c-4.8,0-10.1-0.1-10.7-0.1c-0.8,0-5.9-1.7-5.9-5.6c0-4,0.6-18.1,0.6-18.1l12.2-0.1c0,0-0.2,7.1-0.2,10.7
	c0,1.2,0.1,2.1,0.1,2.2c0.3,0.3,1,1.6,2.5,1.6c1.6,0,3.5-1,3.5-2.1c0-1-0.1-18.4-0.9-18.7h-0.8c-2.1,0-7.4,0.2-10,0.2h-1.2
	c-1.7-0.3-6.3-1.6-6.3-5.2c0-3.7,1-21.3,1-22.9c0-1.6,2.8-8,7.2-8.9c2.1-0.5,3.7-0.7,5-0.7c1.3,0,2.5,0.2,4,0.5
	c1.8,0.4,5.8,1.7,7.4,4.3c1.5,2.6,2.9,9.3,3.1,11.3v3v5H33.4z"/>
<path fill="#FFFFFF" d="M53.7,295.4c-0.1-0.4-0.1-8.1-0.1-15.9c0-15.6,0.1-41.6,0.1-60.9l12.3,0.2l1.5,6c1.8-3.1,3.1-7.2,10.7-7.2
	c7.6,0,9.9,9.6,9.9,10.4c0,0.9,1.3,39.8,1.3,43.3c0,3.5-3.4,8.8-10.3,8.9h-0.4c-4.7,0-9.2-1.4-9.4-1.4c-0.1,0-0.1,1.6-0.1,3.5v5
	c0,2.1-0.1,3.8-0.1,8L53.7,295.4z M66.6,261.3c0.1,2.5,1.9,5.6,5.3,5.6c3.3,0,4.4-4.6,4.5-5.4v-0.6c0-4.2-0.5-27.2-0.6-28.8
	c-0.1-1.8-1.8-4.7-4.5-4.7c-2.7,0-4.7,4.2-4.7,4.2S66.5,258.7,66.6,261.3z"/>
<path fill="#FFFFFF" d="M128.9,274.8c-1.3,7.5-7.6,10.7-14.6,10.7c-9.1,0-19.2-5.5-19.4-13.6v-0.8c0-7.6,1.3-40.5,1.3-41.7v-1.3
	c0-4.4,0.9-18.6,15.7-18.6h0.6c17.6,0.5,18.3,8.1,18.8,16c0.1,2,0.1,4.1,0.1,6.4c0,6.6-0.3,13.3-0.3,13.7c0,0.5-18.4,3.2-19.5,3.2
	c-1,0-2.2,11-2.2,15c0,5.2,1.3,5.5,3.6,5.5h0.6c4.3-0.1,5.1,0.4,5.1-3.1c0-3.3-0.1-7-0.1-11.5l12.2,1.1
	C130.8,255.8,130.3,273,128.9,274.8z M112.4,237.1c3.5,0,8.6-0.7,8.6-0.9c0-0.1,0.1-1.1,0.1-2.5c0-4.3-0.6-12.4-5.1-12.4
	c-6,0-6.8,13.5-6.8,15C109.1,236.9,110.5,237.1,112.4,237.1z"/>
<path fill="#FFFFFF" d="M172.1,235c0,0.1-0.3,0.2-0.9,0.2c-1.9,0-6.5-0.6-9.7-0.7l-0.2-4.6c0.3-0.8-0.5-1.4-1.3-1.4
	c0,0-7.5,0.1-10.8,0.1c0.5,13.2,1.4,29.9,1.4,36.2v1.8c-0.1,1.7-0.3,3-0.3,3.8c0,1,0.2,1.5,0.9,1.9c0.6,0.3,2.2,0.6,4.1,0.6
	c1.8,0,3.8-0.2,5.2-0.6c1.4-0.4,1.6-1,1.6-1.7c0-0.2-0.1-0.6-0.1-0.9c0-0.3,0-0.6,0.2-0.9l9.8,0.3v4.5v0.1c0,3.8-4.3,8.4-8.6,8.4
	h-18.1c-6.9,0-7.2-6-7.2-7v-52.2c0-3.2,5.5-5.5,7.2-5.5c1.7,0,8,0,17.2,0.7c9.2,0.7,9.8,10.4,9.8,10.4S172.1,234.5,172.1,235z"/>
<path fill="#FFFFFF" d="M188.8,283.9c-3.7,0-10.5-0.7-10.5-0.7v-55.6l12.3-0.2c0,0,0.5,55.1,0.5,56.1
	C191.1,283.8,190.2,283.9,188.8,283.9z M184.4,224.9c-2.2,0-5.9-1.5-5.9-4.2c0-3,2.6-5.1,5.4-5.1c2.7,0,5.6,1.7,5.6,4.6
	c0,3.1-2.3,4.1-4.4,4.5C184.9,224.8,184.7,224.9,184.4,224.9z"/>
<path fill="#FFFFFF" d="M198.3,235.5c-1,0-1.6-0.1-1.6-0.2c0-0.3,0.2-12.8,0.2-13.7c0-0.9,2.1-7.1,9.1-7.1c2.5,0,5.5-0.2,8.5-0.2
	c5,0,9.7,0.5,11.3,3.1c2.6,4,3.4,5.1,3.4,12.9c0,7-0.6,27.8-0.6,33.2v1.2c0.6,5.5,0.4,6.3,1.9,6.3c0.5,0,1.2-0.1,2.2-0.1l0.2,12
	c0,0-5.5,0.3-9,0.3c-1.2,0-2.2-0.1-2.5-0.2c-1.5,0-4.8-1.2-4.8-4.7v-1.9c-2.4,2.3-2.8,5-8.2,5h-0.7c-6-0.2-9.9-3.2-10.3-7.7
	c-0.1-2.3-0.1-7.7-0.1-12.8v-10.2c0-1.2,2.7-5.4,11-7.2c8.2-1.8,10.7-3,11.1-4.5c0.2-1.6,0.2-10.9,0.2-11.4c0-0.4-1.2-4.1-4.4-4.1
	c-3.1,0-5.9,0.4-5.9,2.6c0,2.3-0.4,5.4-0.6,8.9C205.4,235.2,200.7,235.5,198.3,235.5z M213.3,272.6c1.8,0,4.3-1.4,4.3-3.1
	c0-1.7,0.3-20.4,0.3-20.4s-7.2,0.1-8.2,3.8c-0.4,1.4-0.6,4.4-0.6,7.5c0,4.7,0.4,9.9,0.9,10.4C210.9,271.7,211.7,272.6,213.3,272.6z"
	/>
<path fill="#FFFFFF" d="M238,282.1l2-78.9c9.3-1,8.3-1,11.4-1c0.4,0,0.6,0,0.6,0.1c0,0.4,0.3,55,0.7,80.6L238,282.1z"/>
<path fill="#FFFFFF" d="M75.2,197.5l2.5-96.8c0,0,10.9-1.2,14-1.2c0.5,0,0.7,0,0.7,0.1c0,0.5,0.4,64.6,0.9,98.9L75.2,197.5z"/>
<path fill="#FFFFFF" d="M109.3,132.2c-2.1,0-3.6-0.1-3.6-0.2c0-0.3-0.1-13.3-0.1-14.5c0-1.1,3.1-8.8,13.6-8.8c3.9,0,8.4-0.2,13-0.2
	c7.4,0,14.6,0.7,17,3.8c3.9,5,5.2,6.4,5.2,16.1c0,8.9-1,40.9-1,47.8v1.3c0.1,1.5,0,6.7,10.4,8.1c3,0.4,5.9,0.5,8.7,0.5
	c6.5,0,27.2-1.1,27.2-1.1l0.4,13.2c0,0-37.6,0.6-49.5,0.6c-4.4,0-7.4-0.1-7.9-0.2c-1.8-0.7-7.2-4-7.2-8.3V186c0,0-4.4,6.2-13,6.2
	h-0.5c-8.9-0.2-15-3.9-15.5-9.6c-0.1-2.4-0.3-7.7-0.3-13.2c0-7.2,0.1-14.6,0.1-15.5c0-1.5,4-6.8,16.5-9c12.4-2.2,16.2-3.7,16.8-5.5
	c0.4-2,0.4-13.6,0.4-14.2c0-0.5-1.9-5.1-6.7-5.1c-4.8,0-8.9,0.4-8.9,3.3c0,2.8,0,4.1-0.4,8.5C123.9,131.9,114.6,132.2,109.3,132.2z
	 M127.8,181c2.6,0,6.5-1.7,6.5-3.8c0-2.1,0.5-25.5,0.5-25.5s-11,0.1-12.5,4.7c-0.6,1.7-0.9,5.4-0.9,9.3c0,6,0.6,12.4,1.4,13.1
	C124.2,179.9,125.3,181,127.8,181z"/>
<path fill="#FFFFFF" d="M194.9,113.7c-2.8,0-8.5-0.5-11.3-0.5c-1.1,0-1.7,0.1-1.7,0.2v2.5c0,9.1,0.3,38.4,0.3,53.5
	c0.9,0.4,2.3,0.7,3.8,0.7c2.3,0,4.4-0.3,4.4-3.2c0-2.8,0.4-13.5,0.4-13.5l12,0.1c0,0-0.7,17.4-0.8,18.8c-0.1,1.7-0.4,5-5.8,5.2
	c-5.4,0.1-10.1,0.2-13.9,0.2c-11.4,0-16-1.2-16-7.5c0-24.1,0-54.8-0.7-55c-0.7-0.1-5.5-0.1-5.5-0.6c0-0.6,0-11.3,0.3-11.3
	c0.3,0,3,0.1,4.7,0.1c0.8,0,1.5,0,1.5-0.1c0-0.5,0.9-8.4,1.2-8.4h6.6c3.4,0,6.6,0,6.6,0.1c0,0.4-0.4,6.3-0.4,8v0.4h1.1
	c3.4,0,13.6-0.1,17.1-0.1h1.1c0,0.1-2.7,9.2-3.1,9.9C196.7,113.5,196,113.7,194.9,113.7z"/>
<path fill="#FFFFFF" d="M252.3,182.9c-1.5,9-9.2,12.8-17.6,12.8c-11,0-23.1-6.7-23.3-16.4v-1c0-9.1,1.5-48.8,1.5-50.2v-1.5
	c0-5.3,1.1-22.5,19-22.5h0.7c21.1,0.6,22,9.7,22.7,19.3c0.1,2.4,0.1,5,0.1,7.7c0,8-0.4,16-0.4,16.5c0,0.6-22.1,3.9-23.5,3.9
	c-1.2,0-2.6,13.3-2.6,18c0,6.3,1.5,6.7,4.4,6.7h0.7c5.2-0.1,6.2,0.5,6.2-3.7c0-4-0.1-8.4-0.1-13.9l14.7,1.3
	C254.6,160,253.9,180.7,252.3,182.9z M232.4,137.5c4.3,0,10.3-0.8,10.3-1.1c0-0.1,0.1-1.3,0.1-3c0-5.2-0.7-15-6.2-15
	c-7.3,0-8.2,16.3-8.2,18C228.4,137.2,230.2,137.5,232.4,137.5z"/>
<g>
	<path fill="#FFFFFF" d="M17.6,209.5c-0.1-0.6-0.1-10.6-0.1-20.6c0-20.2,0.1-53.9,0.1-78.9l15.9,0.2l2,7.8c2.3-4,4-9.4,13.9-9.4
		c9.8,0,12.8,12.4,12.8,13.5c0,1.1,1.7,51.5,1.7,56c0,4.5-4.4,11.4-13.3,11.5h-0.5c-6,0-11.9-1.8-12.2-1.8c-0.1,0-0.1,2-0.1,4.5v6.4
		c0,2.7-0.1,5-0.1,10.3L17.6,209.5z M34.2,165.2c0.1,3.3,2.5,7.2,6.8,7.2c4.3,0,5.8-6,5.9-7v-0.8c0-5.4-0.7-35.1-0.8-37.3
		c-0.1-2.3-2.3-6.1-5.9-6.1c-3.5,0-6.1,5.4-6.1,5.4S34.1,161.8,34.2,165.2z"/>
</g>
<g>
	<path fill="#FFFFFF" d="M0,90.5c35-1.1,38.9-2.5,38.9-5.2v-0.4v-6.2c0-2.3,0-4.2-0.1-4.2c-0.3,0-6.7,1.6-12.9,1.6
		c-6.4,0-13.8-6.6-13.8-11.1c0-4.3,2.4-51,2.4-52c0-1.1,3.1-13,13.2-13c10,0,11.9,4.2,14.2,9.1l1.9-7.6l11.8-0.2
		c-0.1,36.1-0.6,89.1-0.9,90.8c-0.3,1.7-3.4,7.1-13.3,7.7c-9.8,0.6-21.5,1.5-40.8,2.2L0,90.5z M35.4,14.5c-3.6,0-5.9,3.7-6,5.9
		C29.2,22.6,28,51.1,28,54.9c0,1.4,1.6,7.1,6,7.1c4.4,0,6.8-3.8,6.9-6.9v-0.8c0-6.2-1-34.4-1-34.4S39,14.5,35.4,14.5z"/>
	<path fill="#FFFFFF" d="M85.2,87.3c0,0.2-3.9,0.6-8.5,0.6c-2.8,0-6-0.1-8.5-0.6c0.1-3.4,0.1-6,0.1-8v-14v-0.5
		c0-4.6-0.4-27.1-0.4-36.4c0-2.7,0.1-4.8,0.3-6.6l-2.8-0.1L65.2,8.3l29.3-0.4c9,0.1,10,8.2,10,9.3c0,1.2,0.6,11.8,0.6,12.2
		c0,0.1-0.1,0.1-0.5,0.1c-1.8,0-8-0.9-12.9-0.9c-0.3-8-0.9-8.9-5.2-8.9c-2.4,0-2.9,0.9-2.9,2.3c0,0.9,0.3,2,0.3,3.1
		C83.8,65.5,85,67.1,85.2,87.3z"/>
	<path fill="#FFFFFF" d="M149.9,79.6C148.5,88.3,141.1,92,133,92c-10.6,0-22.2-6.4-22.5-15.8v-0.9c0-8.8,1.5-47,1.5-48.3v-1.5
		c0-5.1,1.1-21.6,18.2-21.6h0.7c20.4,0.6,21.2,9.4,21.8,18.5c0.1,2.3,0.1,4.8,0.1,7.4c0,7.7-0.4,15.4-0.4,15.9
		c0,0.6-21.3,3.8-22.6,3.8c-1.2,0-2.5,12.8-2.5,17.4c0,6.1,1.5,6.4,4.2,6.4h0.7c5-0.1,5.9,0.5,5.9-3.5c0-3.9-0.1-8.1-0.1-13.4
		l14.1,1.3C152.2,57.6,151.5,77.5,149.9,79.6z M130.7,35.9c4.1,0,9.9-0.8,9.9-1c0-0.1,0.1-1.3,0.1-2.9c0-5-0.7-14.4-5.9-14.4
		c-7,0-7.9,15.7-7.9,17.4C126.9,35.6,128.6,35.9,130.7,35.9z"/>
	<path fill="#FFFFFF" d="M197.4,73.3c-1.3,7.9-8,11.2-15.4,11.2c-9.6,0-20.2-5.8-20.4-14.3v-0.8c0-8,1.3-42.6,1.3-43.9v-1.3
		c0-4.7,1-19.6,16.6-19.6h0.6c18.5,0.5,19.2,8.5,19.8,16.8c0.1,2.1,0.1,4.4,0.1,6.7c0,7-0.4,14-0.4,14.4c0,0.5-19.3,3.4-20.5,3.4
		c-1.1,0-2.3,11.6-2.3,15.8c0,5.5,1.3,5.8,3.8,5.8h0.6c4.6-0.1,5.4,0.4,5.4-3.2c0-3.5-0.1-7.4-0.1-12.1l12.8,1.1
		C199.4,53.3,198.8,71.4,197.4,73.3z M180,33.6c3.7,0,9-0.7,9-0.9c0-0.1,0.1-1.1,0.1-2.6c0-4.6-0.6-13.1-5.4-13.1
		c-6.4,0-7.2,14.2-7.2,15.8C176.5,33.4,178,33.6,180,33.6z"/>
	<path fill="#FFFFFF" d="M235.7,87.8c0-0.3,1.9-63.1,1.9-64c0-1-1.1-4.2-3.2-4.2c-2.3,0-8.1,1.7-8.1,5c0,1.8,0.3,21.9,0.3,39.3
		c0,13.7-0.1,30.2-0.8,30.3c-1.5,0.3-10.3,1.8-16,1.9c0.1-5.4,0.1-15.6,0.1-21.5c0-24.2-0.5-51.4-0.5-63c0-3.3,0-5.4,0.1-5.6
		c0.5-0.9,9.8-1.7,11.9-1.7h0.3c0.4,0,0.5,1.3,0.5,2.9v5.3v2.1c4.5-3.2,7.9-8.1,18.4-8.2h0.8c5.6,0,9.7,1.4,9.7,12
		c0,11,0.9,70.3,0.9,70.3S235.7,88.1,235.7,87.8z"/>
</g>
</svg>
