<?xml version="1.0" encoding="utf-8"?>
<!-- Generator: Adobe Illustrator 18.1.1, SVG Export Plug-In . SVG Version: 6.00 Build 0)  -->
<!DOCTYPE svg PUBLIC "-//W3C//DTD SVG 1.1//EN" "http://www.w3.org/Graphics/SVG/1.1/DTD/svg11.dtd">
<svg version="1.1" id="Layer_1" xmlns="http://www.w3.org/2000/svg" xmlns:xlink="http://www.w3.org/1999/xlink" x="0px" y="0px"
	 viewBox="0 0 487.7 81.3" enable-background="new 0 0 487.7 81.3" xml:space="preserve">
<g>
	<path fill="#FFFFFF" d="M337.1,31c0,0,0-9.9-0.2-10c-0.1-0.1-1.7-0.3-2.7-0.3c-0.5,0-0.8,0.1-0.8,0.2v2.8v7.8v0.2
		c0,0.7,0.1,2.6,2.9,2.9c3,0.4,6.8,0.7,7.4,1.5c0.7,0.8,1.6,0.6,1.6,4.9c0,3.7,0.3,15.6,0.3,18.9v0.9c-0.2,0.8-1,4.5-4.2,4.6
		c-1.1,0.1-2.7,0.1-4.4,0.1c-3.3,0-6.9-0.1-7.4-0.1c-0.5,0-4.1-1.3-4.1-4.4c0-3.2,0.4-14.4,0.4-14.4l8.4-0.1c0,0-0.1,5.6-0.1,8.5
		c0,1,0.1,1.7,0.1,1.7c0.2,0.3,0.7,1.2,1.7,1.2c1.1,0,2.4-0.8,2.4-1.7c0-0.8-0.1-14.6-0.6-14.8h-0.6c-1.5,0-5.1,0.1-6.9,0.1h-0.8
		c-1.2-0.2-4.3-1.2-4.3-4.2c0-2.9,0.7-16.9,0.7-18.2c0-1.2,1.9-6.4,4.9-7.1c1.5-0.4,2.6-0.6,3.5-0.6c0.9,0,1.7,0.1,2.8,0.4
		c1.2,0.3,3.9,1.4,5.1,3.4c1,2.1,2,7.4,2.1,8.9V27v4H337.1z"/>
	<path fill="#FFFFFF" d="M351,75.2c-0.1-0.4-0.1-6.4-0.1-12.6c0-12.4,0.1-33.1,0.1-48.4l8.5,0.1l1,4.8c1.3-2.4,2.2-5.8,7.4-5.8
		c5.2,0,6.8,7.6,6.8,8.3c0,0.7,0.9,31.6,0.9,34.4c0,2.8-2.4,7-7.1,7.1h-0.3c-3.2,0-6.3-1.1-6.4-1.1c-0.1,0-0.1,1.2-0.1,2.8v4
		c0,1.7-0.1,3-0.1,6.3L351,75.2z M359.9,48.1c0.1,2,1.3,4.4,3.6,4.4c2.3,0,3-3.7,3.1-4.3v-0.5c0-3.3-0.3-21.6-0.4-22.9
		c-0.1-1.4-1.2-3.7-3.1-3.7c-1.9,0-3.3,3.3-3.3,3.3S359.8,46,359.9,48.1z"/>
	<path fill="#FFFFFF" d="M402.6,58.8c-0.9,6-5.2,8.5-10,8.5c-6.3,0-13.2-4.4-13.3-10.8v-0.6c0-6,0.9-32.2,0.9-33.1v-1
		c0-3.5,0.6-14.8,10.8-14.8h0.4c12.1,0.4,12.5,6.4,12.9,12.7c0.1,1.6,0.1,3.3,0.1,5.1c0,5.2-0.2,10.6-0.2,10.9
		c0,0.4-12.6,2.6-13.4,2.6c-0.7,0-1.5,8.8-1.5,11.9c0,4.1,0.9,4.4,2.5,4.4h0.4c3-0.1,3.5,0.3,3.5-2.4c0-2.7-0.1-5.5-0.1-9.2l8.4,0.9
		C404,43.7,403.6,57.4,402.6,58.8z M391.3,28.9c2.4,0,5.9-0.5,5.9-0.7c0-0.1,0.1-0.9,0.1-2c0-3.4-0.4-9.9-3.5-9.9
		c-4.1,0-4.7,10.7-4.7,11.9C389,28.7,390,28.9,391.3,28.9z"/>
	<path fill="#FFFFFF" d="M432.3,27.2c0,0.1-0.2,0.1-0.6,0.1c-1.3,0-4.5-0.5-6.6-0.6l-0.1-3.6c0.2-0.7-0.3-1.1-0.9-1.1
		c0,0-5.1,0.1-7.4,0.1c0.3,10.5,1,23.8,1,28.8v1.4c-0.1,1.4-0.2,2.4-0.2,3c0,0.8,0.1,1.2,0.6,1.5c0.4,0.3,1.5,0.5,2.8,0.5
		c1.2,0,2.6-0.2,3.6-0.5c0.9-0.3,1.1-0.8,1.1-1.3c0-0.2-0.1-0.4-0.1-0.7c0-0.3,0-0.5,0.1-0.7l6.7,0.2v3.6v0.1c0,3-3,6.7-5.9,6.7
		h-12.5c-4.7,0-4.9-4.7-4.9-5.5V17.6c0-2.6,3.7-4.3,4.9-4.3c1.2,0,5.5,0,11.9,0.6c6.3,0.6,6.7,8.3,6.7,8.3S432.3,26.8,432.3,27.2z"
		/>
	<path fill="#FFFFFF" d="M443.7,66.1c-2.6,0-7.2-0.6-7.2-0.6V21.3l8.5-0.1c0,0,0.3,43.8,0.3,44.6C445.3,66,444.7,66.1,443.7,66.1z
		 M440.8,19.2c-1.5,0-4-1.2-4-3.3c0-2.4,1.8-4,3.7-4c1.9,0,3.9,1.3,3.9,3.7c0,2.5-1.6,3.3-3,3.6C441.1,19.1,441,19.2,440.8,19.2z"/>
	<path fill="#FFFFFF" d="M450.3,27.6c-0.7,0-1.1-0.1-1.1-0.1c0-0.2,0.1-10.1,0.1-10.9c0-0.7,1.5-5.6,6.2-5.6c1.7,0,3.8-0.1,5.8-0.1
		c3.5,0,6.7,0.4,7.8,2.4c1.8,3.2,2.4,4.1,2.4,10.3c0,5.5-0.4,22-0.4,26.3v1c0.4,4.4,0.3,5,1.3,5c0.3,0,0.8-0.1,1.5-0.1l0.1,9.6
		c0,0-3.8,0.3-6.2,0.3c-0.8,0-1.5-0.1-1.7-0.1c-1,0-3.3-1-3.3-3.7v-1.5c-1.7,1.8-1.9,3.9-5.6,3.9h-0.5c-4.1-0.1-6.8-2.5-7.1-6.1
		c-0.1-1.8-0.1-6.1-0.1-10.1v-8.1c0-1,1.9-4.3,7.6-5.7c5.6-1.4,7.4-2.4,7.6-3.5c0.1-1.3,0.1-8.7,0.1-9c0-0.3-0.8-3.3-3-3.3
		c-2.2,0-4,0.3-4,2.1c0,1.8-0.3,4.3-0.4,7.1C455.2,27.4,451.9,27.6,450.3,27.6z M460.6,57.1c1.2,0,3-1.1,3-2.4
		c0-1.3,0.2-16.2,0.2-16.2s-4.9,0.1-5.6,3c-0.3,1.1-0.4,3.5-0.4,6c0,3.7,0.3,7.8,0.6,8.3C458.9,56.4,459.5,57.1,460.6,57.1z"/>
	<path fill="#FFFFFF" d="M477.6,64.6L479,2c6.4-0.8,5.7-0.8,7.8-0.8c0.3,0,0.4,0,0.4,0.1c0,0.3,0.2,43.7,0.5,64L477.6,64.6z"/>
</g>
<g>
	<path fill="#FFFFFF" d="M202.8,71.8L204.3,4c0,0,6.6-0.8,8.5-0.8c0.3,0,0.5,0,0.5,0.1c0,0.4,0.2,45.4,0.5,69.4L202.8,71.8z"/>
	<path fill="#FFFFFF" d="M223.5,26c-1.3,0-2.2-0.1-2.2-0.2c0-0.2-0.1-9.3-0.1-10.1c0-0.8,1.9-6.2,8.2-6.2c2.4,0,5.1-0.1,7.9-0.1
		c4.5,0,8.9,0.5,10.3,2.7c2.4,3.5,3.1,4.5,3.1,11.3c0,6.3-0.6,28.7-0.6,33.5v0.9c0.1,1.1,0,4.7,6.3,5.7c1.8,0.3,3.6,0.4,5.3,0.4
		c4,0,16.5-0.8,16.5-0.8l0.2,9.2c0,0-22.8,0.4-30,0.4c-2.7,0-4.5-0.1-4.8-0.2c-1.1-0.5-4.4-2.8-4.4-5.8v-3.1c0,0-2.7,4.4-7.9,4.4
		h-0.3c-5.4-0.2-9.1-2.8-9.4-6.7c-0.1-1.7-0.2-5.4-0.2-9.2c0-5,0.1-10.2,0.1-10.8c0-1.1,2.4-4.7,10-6.3c7.5-1.5,9.8-2.6,10.2-3.9
		c0.2-1.4,0.2-9.5,0.2-9.9c0-0.4-1.1-3.6-4-3.6c-2.9,0-5.4,0.3-5.4,2.3c0,2,0,2.9-0.2,6C232.4,25.8,226.7,26,223.5,26z M234.7,60.2
		c1.6,0,4-1.2,4-2.7c0-1.5,0.3-17.9,0.3-17.9s-6.6,0.1-7.6,3.3c-0.4,1.2-0.5,3.8-0.5,6.5c0,4.2,0.4,8.7,0.8,9.2
		C232.5,59.5,233.2,60.2,234.7,60.2z"/>
	<path fill="#FFFFFF" d="M275.4,13c-1.7,0-5.2-0.3-6.9-0.3c-0.7,0-1.1,0.1-1.1,0.2v1.8c0,6.4,0.2,26.9,0.2,37.5
		c0.6,0.2,1.4,0.5,2.3,0.5c1.4,0,2.7-0.2,2.7-2.2c0-2,0.3-9.5,0.3-9.5l7.3,0.1c0,0-0.4,12.2-0.5,13.2c-0.1,1.2-0.2,3.5-3.5,3.7
		c-3.3,0.1-6.1,0.2-8.4,0.2c-6.9,0-9.7-0.8-9.7-5.2c0-16.9,0-38.5-0.4-38.6c-0.4-0.1-3.4-0.1-3.4-0.4c0-0.4,0-7.9,0.2-7.9
		c0.2,0,1.8,0.1,2.9,0.1c0.5,0,0.9,0,0.9-0.1c0-0.3,0.6-5.9,0.7-5.9h4c2,0,4,0,4,0.1c0,0.2-0.2,4.4-0.2,5.6V6h0.7
		c2,0,8.3-0.1,10.4-0.1h0.7c0,0.1-1.6,6.5-1.9,7C276.5,12.9,276.1,13,275.4,13z"/>
	<path fill="#FFFFFF" d="M310.2,61.6c-0.9,6.3-5.6,9-10.7,9c-6.7,0-14-4.7-14.2-11.5v-0.7c0-6.4,0.9-34.2,0.9-35.2v-1.1
		c0-3.8,0.7-15.8,11.5-15.8h0.4c12.8,0.4,13.3,6.8,13.7,13.5c0.1,1.7,0.1,3.5,0.1,5.4c0,5.6-0.2,11.2-0.2,11.6
		c0,0.4-13.4,2.8-14.3,2.8c-0.7,0-1.6,9.3-1.6,12.7c0,4.4,0.9,4.7,2.7,4.7h0.4c3.2-0.1,3.8,0.3,3.8-2.6c0-2.8-0.1-5.9-0.1-9.7
		l8.9,0.9C311.6,45.5,311.2,60,310.2,61.6z M298.1,29.7c2.6,0,6.2-0.6,6.2-0.7c0-0.1,0.1-0.9,0.1-2.1c0-3.7-0.4-10.5-3.8-10.5
		c-4.4,0-5,11.4-5,12.7C295.7,29.5,296.8,29.7,298.1,29.7z"/>
	<g>
		<path fill="#FFFFFF" d="M167.9,80.2c-0.1-0.4-0.1-7.4-0.1-14.5c0-14.2,0.1-37.8,0.1-55.3l9.7,0.2l1.2,5.5c1.4-2.8,2.5-6.6,8.4-6.6
			c6,0,7.8,8.7,7.8,9.4c0,0.8,1,36.1,1,39.3c0,3.2-2.7,8-8.1,8.1h-0.3c-3.7,0-7.2-1.3-7.4-1.3c-0.1,0-0.1,1.4-0.1,3.2v4.5
			c0,1.9-0.1,3.5-0.1,7.3L167.9,80.2z M178,49.1c0.1,2.3,1.5,5.1,4.1,5.1c2.6,0,3.5-4.2,3.6-4.9v-0.6c0-3.8-0.4-24.7-0.5-26.2
			c-0.1-1.6-1.4-4.3-3.6-4.3c-2.1,0-3.7,3.8-3.7,3.8S177.9,46.8,178,49.1z"/>
	</g>
</g>
<g>
	<path fill="#FFFFFF" d="M0,73.2c21.2-0.8,23.6-1.8,23.6-3.7v-0.3v-4.3c0-1.6,0-3-0.1-3c-0.2,0-4,1.1-7.8,1.1
		c-3.9,0-8.4-4.6-8.4-7.8c0-3,1.4-36.6,1.4-37.3c0-0.8,1.9-9.1,8-9.1c6.1,0,7.2,3,8.6,6.4l1.1-5.3l7.2-0.2
		c-0.1,25.4-0.4,63.3-0.5,64.5c-0.2,1.2-2.1,5-8.1,5.4c-5.9,0.5-13,1.1-24.7,1.5L0,73.2z M21.5,19.1c-2.2,0-3.6,2.6-3.7,4.1
		c-0.1,1.5-0.8,22.4-0.8,25c0,1,1,4.9,3.7,4.9c2.7,0,4.1-2.7,4.2-4.9v-0.5c0-4.3-0.6-25-0.6-25S23.7,19.1,21.5,19.1z"/>
	<path fill="#FFFFFF" d="M51.7,71c0,0.2-2.4,0.4-5.2,0.4c-1.7,0-3.6-0.1-5.2-0.4c0.1-2.4,0.1-4.2,0.1-5.6v-9.8v-0.4
		c0-3.2-0.2-19-0.2-25.5c0-1.9,0.1-3.4,0.2-4.6l-1.7-0.1l-0.2-9.3l17.8-0.3c5.5,0.1,6.1,5.8,6.1,6.5c0,0.8,0.4,8.3,0.4,8.5
		c0,0.1-0.1,0.1-0.3,0.1c-1.1,0-4.8-0.6-7.8-0.6c-0.2-5.6-0.5-6.2-3.1-6.2c-1.5,0-1.8,0.6-1.8,1.6c0,0.6,0.2,1.4,0.2,2.2
		C50.8,55.7,51.5,56.8,51.7,71z"/>
	<path fill="#FFFFFF" d="M90.9,65.6c-0.9,6.1-5.4,8.7-10.3,8.7c-6.4,0-13.5-4.5-13.6-11.1v-0.6c0-6.2,0.9-33,0.9-33.9v-1
		c0-3.6,0.6-15.2,11.1-15.2h0.4c12.3,0.4,12.8,6.6,13.2,13c0.1,1.6,0.1,3.4,0.1,5.2c0,5.4-0.2,10.8-0.2,11.1
		c0,0.4-12.9,2.6-13.7,2.6c-0.7,0-1.5,9-1.5,12.2c0,4.2,0.9,4.5,2.6,4.5h0.4c3-0.1,3.6,0.3,3.6-2.5c0-2.7-0.1-5.7-0.1-9.4l8.6,0.9
		C92.3,50.1,91.9,64.1,90.9,65.6z M79.3,34.9c2.5,0,6-0.6,6-0.7c0-0.1,0.1-0.9,0.1-2c0-3.5-0.4-10.1-3.6-10.1C77.6,22,77,33,77,34.2
		C77,34.7,78,34.9,79.3,34.9z"/>
	<path fill="#FFFFFF" d="M119.7,61.2c-0.8,5.5-4.9,7.9-9.3,7.9C104.6,69,98.2,65,98,59v-0.6c0-5.6,0.8-29.9,0.8-30.8v-0.9
		c0-3.3,0.6-13.8,10-13.8h0.4c11.2,0.4,11.6,6,12,11.8c0.1,1.5,0.1,3.1,0.1,4.7c0,4.9-0.2,9.8-0.2,10.1c0,0.4-11.7,2.4-12.4,2.4
		c-0.7,0-1.4,8.1-1.4,11.1c0,3.9,0.8,4.1,2.3,4.1h0.4c2.8-0.1,3.3,0.3,3.3-2.3c0-2.5-0.1-5.2-0.1-8.5l7.8,0.8
		C121,47.1,120.6,59.8,119.7,61.2z M109.2,33.3c2.3,0,5.5-0.5,5.5-0.7c0-0.1,0.1-0.8,0.1-1.8c0-3.2-0.4-9.2-3.3-9.2
		c-3.9,0-4.4,10-4.4,11.1C107,33.2,108,33.3,109.2,33.3z"/>
	<path fill="#FFFFFF" d="M143,71.4c0-0.2,1.1-44.3,1.1-44.9c0-0.7-0.6-3-1.9-3c-1.4,0-4.9,1.2-4.9,3.5c0,1.3,0.2,15.4,0.2,27.6
		c0,9.6-0.1,21.2-0.5,21.3c-0.9,0.2-6.3,1.3-9.7,1.4c0.1-3.8,0.1-10.9,0.1-15.1c0-17-0.3-36.1-0.3-44.2c0-2.3,0-3.8,0.1-3.9
		c0.3-0.6,5.9-1.2,7.2-1.2h0.2c0.2,0,0.3,0.9,0.3,2v3.7V20c2.7-2.2,4.8-5.7,11.1-5.8h0.5c3.4,0,5.9,1,5.9,8.4
		c0,7.7,0.6,49.3,0.6,49.3S143,71.5,143,71.4z"/>
</g>
</svg>
